<svg width="50" height="50" viewBox="0 0 50 50" fill="none" xmlns="http://www.w3.org/2000/svg">
<path d="M47.234 0H2.75751C2.02617 0 1.32479 0.290522 0.807656 0.807656C0.290523 1.32479 0 2.02617 0 2.75751V47.2382C0 47.9696 0.290523 48.671 0.807656 49.1881C1.32479 49.7052 2.02617 49.9958 2.75751 49.9958H26.6927V30.638H20.185V23.091H26.6927V17.525C26.6927 11.0682 30.638 7.55133 36.3991 7.55133C38.3432 7.5444 40.2863 7.64353 42.2196 7.84829V14.5978H38.236C35.101 14.5978 34.4943 16.0869 34.4943 18.2717V23.091H41.965L40.9935 30.638H34.4943V50H47.2213C47.9523 49.9989 48.653 49.708 49.1699 49.1911C49.6868 48.6742 49.9777 47.9735 49.9788 47.2425V2.76175C49.9799 2.03188 49.6916 1.33133 49.1771 0.813644C48.6626 0.295958 47.9639 0.00336777 47.234 0Z" fill="#EFEFEF"/>
</svg>
