<svg width="50" height="50" viewBox="0 0 50 50" fill="none" xmlns="http://www.w3.org/2000/svg">
<path d="M45.3125 0H4.6875C2.10938 0 0 2.10938 0 4.6875V45.3125C0 47.8906 2.10938 50 4.6875 50H45.3125C47.8906 50 50 47.8906 50 45.3125V4.6875C50 2.10938 47.8906 0 45.3125 0ZM18.75 40.625H12.5V18.75H18.75V40.625ZM15.625 15.625C14.7962 15.625 14.0013 15.2958 13.4153 14.7097C12.8292 14.1237 12.5 13.3288 12.5 12.5C12.5 11.6712 12.8292 10.8763 13.4153 10.2903C14.0013 9.70424 14.7962 9.375 15.625 9.375C16.4538 9.375 17.2487 9.70424 17.8347 10.2903C18.4208 10.8763 18.75 11.6712 18.75 12.5C18.75 13.3288 18.4208 14.1237 17.8347 14.7097C17.2487 15.2958 16.4538 15.625 15.625 15.625ZM40.625 40.625H34.375V28.125C34.375 27.2962 34.0458 26.5013 33.4597 25.9153C32.8737 25.3292 32.0788 25 31.25 25C30.4212 25 29.6263 25.3292 29.0403 25.9153C28.4542 26.5013 28.125 27.2962 28.125 28.125V40.625H21.875V18.75H28.125V22.6281C29.4125 20.8594 31.3875 18.75 33.5938 18.75C37.4813 18.75 40.625 22.2469 40.625 26.5625V40.625Z" fill="#EFEFEF"/>
</svg>
