<svg width="320" height="320" viewBox="0 0 320 320" fill="none" xmlns="http://www.w3.org/2000/svg">
<g filter="url(#filter0_d_486_28)">
<rect x="8" y="6" width="300" height="300" rx="25" fill="#FAB84B"/>
</g>
<path d="M158.346 173.1H186.743C189.503 173.1 192.151 172.004 194.102 170.052C196.054 168.1 197.151 165.453 197.151 162.693V138.905C197.151 136.144 196.054 133.497 194.102 131.546C192.151 129.594 189.503 128.497 186.743 128.497H148.087C146.66 128.497 145.292 128.789 144.043 129.312C139.335 126.818 134.087 125.517 128.759 125.524C125.743 125.521 122.741 125.935 119.838 126.755V83.8942C119.838 80.7396 121.092 77.7143 123.322 75.4837C125.553 73.2531 128.578 72 131.733 72H167.415V107.682C167.415 110.837 168.668 113.862 170.899 116.093C173.129 118.324 176.155 119.577 179.309 119.577H214.992V179.047C214.992 182.202 213.739 185.227 211.508 187.458C209.277 189.689 206.252 190.942 203.098 190.942H173.255C172.936 188.718 171.903 186.657 170.311 185.072L158.346 173.1ZM188.23 155.259V162.693C188.23 163.087 188.073 163.465 187.794 163.744C187.516 164.023 187.137 164.18 186.743 164.18H164.442V155.259H188.23ZM164.442 146.339V137.418H186.743C187.137 137.418 187.516 137.575 187.794 137.853C188.073 138.132 188.23 138.51 188.23 138.905V146.339H164.442ZM176.336 74.9735V107.682C176.336 108.471 176.649 109.227 177.207 109.785C177.764 110.343 178.521 110.656 179.309 110.656H212.018L176.336 74.9735ZM150.573 173.737C154.461 168.268 156.153 161.537 155.313 154.88C154.473 148.222 151.163 142.123 146.038 137.791C140.913 133.459 134.347 131.21 127.643 131.491C120.938 131.772 114.583 134.561 109.838 139.306C105.093 144.051 102.304 150.406 102.023 157.11C101.743 163.815 103.991 170.38 108.323 175.505C112.655 180.63 118.754 183.941 125.412 184.781C132.07 185.621 138.8 183.929 144.269 180.041L159.803 195.58C160.211 196.019 160.704 196.37 161.251 196.614C161.798 196.858 162.389 196.989 162.987 196.999C163.586 197.01 164.181 196.9 164.737 196.675C165.292 196.451 165.796 196.117 166.22 195.694C166.644 195.27 166.977 194.766 167.202 194.21C167.426 193.655 167.536 193.06 167.526 192.461C167.515 191.862 167.384 191.271 167.14 190.724C166.896 190.177 166.545 189.685 166.107 189.276L150.573 173.737ZM146.6 158.233C146.6 160.576 146.139 162.896 145.242 165.06C144.346 167.225 143.031 169.192 141.375 170.848C139.718 172.505 137.751 173.819 135.587 174.716C133.422 175.612 131.102 176.074 128.759 176.074C126.416 176.074 124.096 175.612 121.932 174.716C119.767 173.819 117.8 172.505 116.143 170.848C114.487 169.192 113.173 167.225 112.276 165.06C111.379 162.896 110.918 160.576 110.918 158.233C110.918 153.501 112.798 148.963 116.143 145.617C119.489 142.271 124.027 140.391 128.759 140.391C133.491 140.391 138.029 142.271 141.375 145.617C144.721 148.963 146.6 153.501 146.6 158.233Z" fill="#1C3751"/>
<path d="M111.998 236.072L109.094 228.68L106.166 236.072H111.998ZM117.566 243.128H114.782L112.958 238.544H105.182L103.334 243.128H100.574L107.87 225.224H110.486L117.566 243.128ZM133.36 243.128H130.48L122.8 229.712V243.128H120.208V225.224H122.968L130.768 238.856V225.224H133.36V243.128ZM147.366 236.072L144.462 228.68L141.534 236.072H147.366ZM152.934 243.128H150.15L148.326 238.544H140.55L138.702 243.128H135.942L143.238 225.224H145.854L152.934 243.128ZM164.575 243.032H155.551V225.272H158.143V240.56H164.575V243.032ZM169.672 243.032H167.032V225.272H169.672V243.032ZM181.879 227.984C181.079 227.584 180.007 227.384 178.663 227.384C176.583 227.384 175.543 228.152 175.543 229.688C175.543 230.424 176.191 231.2 177.487 232.016C178.559 232.704 179.399 233.248 180.007 233.648C180.615 234.048 180.983 234.312 181.111 234.44C182.407 235.576 183.055 236.888 183.055 238.376C183.055 240.04 182.415 241.344 181.135 242.288C180.047 243.088 178.743 243.488 177.223 243.488C175.703 243.488 174.311 243.208 173.047 242.648L173.359 239.984C174.559 240.656 175.879 240.992 177.319 240.992C179.447 240.992 180.511 240.056 180.511 238.184C180.511 237.448 179.863 236.648 178.567 235.784C177.399 235 176.511 234.4 175.903 233.984C175.311 233.568 174.991 233.344 174.943 233.312C173.663 232.208 173.023 231 173.023 229.688C173.023 228.2 173.599 227.008 174.751 226.112C175.791 225.312 177.103 224.912 178.687 224.912C179.999 224.912 181.207 225.12 182.311 225.536L181.879 227.984ZM196.373 236.072L193.469 228.68L190.541 236.072H196.373ZM201.941 243.128H199.157L197.333 238.544H189.557L187.709 243.128H184.949L192.245 225.224H194.861L201.941 243.128ZM207.439 232.616H208.663C209.719 232.616 210.551 232.424 211.159 232.04C211.895 231.608 212.263 230.952 212.263 230.072C212.263 229.032 211.951 228.352 211.327 228.032C210.895 227.824 210.015 227.72 208.687 227.72H207.439V232.616ZM216.367 243.032H213.607L211.015 237.032C210.663 236.216 210.343 235.704 210.055 235.496C209.703 235.224 209.143 235.088 208.375 235.088H207.439V243.032H204.871V225.272H209.575C213.095 225.272 214.855 226.872 214.855 230.072C214.855 231.128 214.527 232.008 213.871 232.712C213.215 233.416 212.359 233.872 211.303 234.08C212.199 234.256 212.863 234.848 213.295 235.856L216.367 243.032ZM86.8167 253.984C86.0167 253.584 84.9447 253.384 83.6007 253.384C81.5207 253.384 80.4807 254.152 80.4807 255.688C80.4807 256.424 81.1287 257.2 82.4247 258.016C83.4967 258.704 84.3367 259.248 84.9447 259.648C85.5527 260.048 85.9207 260.312 86.0487 260.44C87.3447 261.576 87.9927 262.888 87.9927 264.376C87.9927 266.04 87.3527 267.344 86.0727 268.288C84.9847 269.088 83.6807 269.488 82.1607 269.488C80.6407 269.488 79.2487 269.208 77.9847 268.648L78.2967 265.984C79.4967 266.656 80.8167 266.992 82.2567 266.992C84.3847 266.992 85.4487 266.056 85.4487 264.184C85.4487 263.448 84.8007 262.648 83.5047 261.784C82.3367 261 81.4487 260.4 80.8407 259.984C80.2487 259.568 79.9287 259.344 79.8807 259.312C78.6007 258.208 77.9607 257 77.9607 255.688C77.9607 254.2 78.5367 253.008 79.6887 252.112C80.7287 251.312 82.0407 250.912 83.6247 250.912C84.9367 250.912 86.1447 251.12 87.2487 251.536L86.8167 253.984ZM98.8868 253.336C97.2228 253.336 95.9108 254.04 94.9508 255.448C94.0708 256.712 93.6308 258.28 93.6308 260.152C93.6308 262.04 94.0708 263.616 94.9508 264.88C95.9108 266.288 97.2228 266.992 98.8868 266.992C100.551 266.992 101.863 266.288 102.823 264.88C103.687 263.616 104.119 262.04 104.119 260.152C104.119 258.296 103.687 256.728 102.823 255.448C101.863 254.04 100.551 253.336 98.8868 253.336ZM98.8868 250.912C101.447 250.912 103.439 251.864 104.863 253.768C106.127 255.464 106.751 257.592 106.735 260.152C106.703 262.952 106.047 265.16 104.767 266.776C103.375 268.536 101.415 269.416 98.8868 269.416C96.3748 269.416 94.4068 268.536 92.9828 266.776C91.6708 265.128 91.0148 262.92 91.0148 260.152C91.0148 257.56 91.6388 255.424 92.8868 253.744C94.2948 251.856 96.2948 250.912 98.8868 250.912ZM119.481 269.032H110.457V251.272H113.049V266.56H119.481V269.032ZM124.578 269.032H121.938V251.272H124.578V269.032ZM141.129 268.6C140.233 269.096 138.833 269.344 136.929 269.344C134.193 269.344 132.009 268.512 130.377 266.848C128.761 265.152 127.953 262.92 127.953 260.152C127.953 257.416 128.777 255.2 130.425 253.504C132.073 251.808 134.241 250.96 136.929 250.96C138.881 250.96 140.281 251.176 141.129 251.608L140.937 254.056C139.849 253.624 138.513 253.408 136.929 253.408C134.993 253.408 133.449 254.032 132.297 255.28C131.145 256.528 130.569 258.152 130.569 260.152C130.569 262.232 131.129 263.864 132.249 265.048C133.385 266.28 134.945 266.896 136.929 266.896C138.609 266.896 139.945 266.632 140.937 266.104L141.129 268.6ZM148.391 269.032H145.751V251.272H148.391V269.032ZM162.926 253.648H158.054V269.032H155.438V253.648H150.59V251.272H162.926V253.648ZM175.092 262.072L172.188 254.68L169.26 262.072H175.092ZM180.66 269.128H177.876L176.052 264.544H168.276L166.428 269.128H163.668L170.964 251.224H173.58L180.66 269.128ZM190.766 252.52C189.854 252.52 189.03 252.68 188.294 253C187.558 253.304 186.934 253.76 186.422 254.368C185.91 254.96 185.518 255.688 185.246 256.552C184.974 257.4 184.838 258.36 184.838 259.432C184.838 260.84 185.054 262.064 185.486 263.104C185.934 264.144 186.59 264.944 187.454 265.504C188.334 266.064 189.43 266.344 190.742 266.344C191.494 266.344 192.206 266.28 192.878 266.152C193.55 266.024 194.206 265.864 194.846 265.672V267.544C194.206 267.784 193.542 267.96 192.854 268.072C192.182 268.184 191.374 268.24 190.43 268.24C188.686 268.24 187.23 267.88 186.062 267.16C184.894 266.44 184.014 265.416 183.422 264.088C182.846 262.76 182.558 261.2 182.558 259.408C182.558 258.112 182.734 256.928 183.086 255.856C183.454 254.784 183.982 253.856 184.67 253.072C185.374 252.288 186.238 251.688 187.262 251.272C188.286 250.84 189.462 250.624 190.79 250.624C191.67 250.624 192.518 250.712 193.334 250.888C194.15 251.064 194.878 251.312 195.518 251.632L194.654 253.456C194.126 253.216 193.534 253 192.878 252.808C192.238 252.616 191.534 252.52 190.766 252.52ZM192.446 271.336C192.446 271.848 192.31 272.28 192.038 272.632C191.782 273 191.39 273.28 190.862 273.472C190.334 273.664 189.678 273.76 188.894 273.76C188.654 273.76 188.422 273.744 188.198 273.712C187.99 273.696 187.822 273.672 187.694 273.64V272.32C187.838 272.352 188.03 272.376 188.27 272.392C188.51 272.424 188.742 272.44 188.966 272.44C189.542 272.44 189.982 272.36 190.286 272.2C190.59 272.056 190.742 271.784 190.742 271.384C190.742 270.968 190.526 270.664 190.094 270.472C189.678 270.28 189.166 270.144 188.558 270.064L189.59 268H190.982L190.358 269.272C190.742 269.352 191.094 269.472 191.414 269.632C191.734 269.808 191.982 270.032 192.158 270.304C192.35 270.576 192.446 270.92 192.446 271.336ZM213.069 259.408C213.069 260.736 212.901 261.944 212.565 263.032C212.229 264.104 211.725 265.032 211.053 265.816C210.397 266.6 209.573 267.2 208.581 267.616C207.605 268.032 206.469 268.24 205.173 268.24C203.829 268.24 202.661 268.032 201.669 267.616C200.677 267.184 199.853 266.584 199.197 265.816C198.541 265.032 198.053 264.096 197.733 263.008C197.413 261.92 197.253 260.712 197.253 259.384C197.253 257.624 197.541 256.088 198.117 254.776C198.693 253.464 199.565 252.44 200.733 251.704C201.917 250.968 203.405 250.6 205.197 250.6C206.909 250.6 208.349 250.968 209.517 251.704C210.685 252.424 211.565 253.448 212.157 254.776C212.765 256.088 213.069 257.632 213.069 259.408ZM199.533 259.408C199.533 260.848 199.733 262.088 200.133 263.128C200.533 264.168 201.149 264.968 201.981 265.528C202.829 266.088 203.893 266.368 205.173 266.368C206.469 266.368 207.525 266.088 208.341 265.528C209.173 264.968 209.789 264.168 210.189 263.128C210.589 262.088 210.789 260.848 210.789 259.408C210.789 257.248 210.341 255.56 209.445 254.344C208.549 253.112 207.133 252.496 205.197 252.496C203.901 252.496 202.829 252.776 201.981 253.336C201.149 253.88 200.533 254.672 200.133 255.712C199.733 256.736 199.533 257.968 199.533 259.408ZM200.781 249.184C200.829 248.704 200.917 248.28 201.045 247.912C201.189 247.528 201.373 247.208 201.597 246.952C201.821 246.68 202.085 246.472 202.389 246.328C202.693 246.184 203.037 246.112 203.421 246.112C203.773 246.112 204.109 246.184 204.429 246.328C204.765 246.456 205.085 246.616 205.389 246.808C205.693 246.984 205.981 247.144 206.253 247.288C206.541 247.416 206.813 247.48 207.069 247.48C207.437 247.48 207.717 247.368 207.909 247.144C208.117 246.904 208.277 246.552 208.389 246.088H209.589C209.493 247.016 209.221 247.76 208.773 248.32C208.325 248.88 207.725 249.16 206.973 249.16C206.637 249.16 206.309 249.096 205.989 248.968C205.669 248.824 205.349 248.664 205.029 248.488C204.725 248.296 204.429 248.136 204.141 248.008C203.869 247.864 203.597 247.792 203.325 247.792C202.941 247.792 202.653 247.912 202.461 248.152C202.269 248.376 202.117 248.72 202.005 249.184H200.781ZM225.987 269.128H216.867V251.224H225.723V253.672H219.483V258.664H225.387V261.112H219.483V266.656H225.987V269.128ZM238.129 253.984C237.329 253.584 236.257 253.384 234.913 253.384C232.833 253.384 231.793 254.152 231.793 255.688C231.793 256.424 232.441 257.2 233.737 258.016C234.809 258.704 235.649 259.248 236.257 259.648C236.865 260.048 237.233 260.312 237.361 260.44C238.657 261.576 239.305 262.888 239.305 264.376C239.305 266.04 238.665 267.344 237.385 268.288C236.297 269.088 234.993 269.488 233.473 269.488C231.953 269.488 230.561 269.208 229.297 268.648L229.609 265.984C230.809 266.656 232.129 266.992 233.569 266.992C235.697 266.992 236.761 266.056 236.761 264.184C236.761 263.448 236.113 262.648 234.817 261.784C233.649 261 232.761 260.4 232.153 259.984C231.561 259.568 231.241 259.344 231.193 259.312C229.913 258.208 229.273 257 229.273 255.688C229.273 254.2 229.849 253.008 231.001 252.112C232.041 251.312 233.353 250.912 234.937 250.912C236.249 250.912 237.457 251.12 238.561 251.536L238.129 253.984Z" fill="#1C3751"/>
<defs>
<filter id="filter0_d_486_28" x="0" y="0" width="320" height="320" filterUnits="userSpaceOnUse" color-interpolation-filters="sRGB">
<feFlood flood-opacity="0" result="BackgroundImageFix"/>
<feColorMatrix in="SourceAlpha" type="matrix" values="0 0 0 0 0 0 0 0 0 0 0 0 0 0 0 0 0 0 127 0" result="hardAlpha"/>
<feOffset dx="2" dy="4"/>
<feGaussianBlur stdDeviation="5"/>
<feComposite in2="hardAlpha" operator="out"/>
<feColorMatrix type="matrix" values="0 0 0 0 0 0 0 0 0 0 0 0 0 0 0 0 0 0 0.25 0"/>
<feBlend mode="normal" in2="BackgroundImageFix" result="effect1_dropShadow_486_28"/>
<feBlend mode="normal" in="SourceGraphic" in2="effect1_dropShadow_486_28" result="shape"/>
</filter>
</defs>
</svg>
