<svg width="277" height="277" viewBox="0 0 277 277" fill="none" xmlns="http://www.w3.org/2000/svg">
<g clip-path="url(#clip0_7_12)">
<g filter="url(#filter0_d_7_12)">
<path d="M240 6H33C19.1929 6 8 17.1929 8 31V238C8 251.807 19.1929 263 33 263H240C253.807 263 265 251.807 265 238V31C265 17.1929 253.807 6 240 6Z" fill="#FAB84B"/>
</g>
<path d="M78.5558 200.5C77.8091 200.913 76.6424 201.12 75.0558 201.12C72.7758 201.12 70.9558 200.427 69.5958 199.04C68.2491 197.627 67.5758 195.767 67.5758 193.46C67.5758 191.18 68.2624 189.333 69.6358 187.92C71.0091 186.507 72.8158 185.8 75.0558 185.8C76.6824 185.8 77.8491 185.98 78.5558 186.34L78.3958 188.38C77.4891 188.02 76.3758 187.84 75.0558 187.84C73.4424 187.84 72.1558 188.36 71.1958 189.4C70.2358 190.44 69.7558 191.793 69.7558 193.46C69.7558 195.193 70.2224 196.553 71.1558 197.54C72.1024 198.567 73.4024 199.08 75.0558 199.08C76.4558 199.08 77.5691 198.86 78.3958 198.42L78.5558 200.5ZM90.647 195.06L88.227 188.9L85.787 195.06H90.647ZM95.287 200.94H92.967L91.447 197.12H84.967L83.427 200.94H81.127L87.207 186.02H89.387L95.287 200.94ZM99.7284 198.8H100.448C104.502 198.8 106.528 196.987 106.528 193.36C106.528 189.853 104.795 188.1 101.328 188.1H99.7284V198.8ZM97.5484 186.06H101.328C103.835 186.06 105.722 186.753 106.988 188.14C108.122 189.393 108.688 191.153 108.688 193.42C108.688 195.98 107.875 197.893 106.248 199.16C104.822 200.293 102.842 200.86 100.308 200.86H97.5484V186.06ZM120.12 195.06L117.7 188.9L115.26 195.06H120.12ZM124.76 200.94H122.44L120.92 197.12H114.44L112.9 200.94H110.6L116.68 186.02H118.86L124.76 200.94ZM133.881 188.32C133.214 187.987 132.321 187.82 131.201 187.82C129.468 187.82 128.601 188.46 128.601 189.74C128.601 190.353 129.141 191 130.221 191.68C131.114 192.253 131.814 192.707 132.321 193.04C132.828 193.373 133.134 193.593 133.241 193.7C134.321 194.647 134.861 195.74 134.861 196.98C134.861 198.367 134.328 199.453 133.261 200.24C132.354 200.907 131.268 201.24 130.001 201.24C128.734 201.24 127.574 201.007 126.521 200.54L126.781 198.32C127.781 198.88 128.881 199.16 130.081 199.16C131.854 199.16 132.741 198.38 132.741 196.82C132.741 196.207 132.201 195.54 131.121 194.82C130.148 194.167 129.408 193.667 128.901 193.32C128.408 192.973 128.141 192.787 128.101 192.76C127.034 191.84 126.501 190.833 126.501 189.74C126.501 188.5 126.981 187.507 127.941 186.76C128.808 186.093 129.901 185.76 131.221 185.76C132.314 185.76 133.321 185.933 134.241 186.28L133.881 188.32ZM146.72 188.04H142.66V200.86H140.48V188.04H136.44V186.06H146.72V188.04ZM151.138 192.18H152.158C153.038 192.18 153.731 192.02 154.238 191.7C154.851 191.34 155.158 190.793 155.158 190.06C155.158 189.193 154.898 188.627 154.378 188.36C154.018 188.187 153.285 188.1 152.178 188.1H151.138V192.18ZM158.578 200.86H156.278L154.118 195.86C153.825 195.18 153.558 194.753 153.318 194.58C153.025 194.353 152.558 194.24 151.918 194.24H151.138V200.86H148.998V186.06H152.918C155.851 186.06 157.318 187.393 157.318 190.06C157.318 190.94 157.045 191.673 156.498 192.26C155.951 192.847 155.238 193.227 154.358 193.4C155.105 193.547 155.658 194.04 156.018 194.88L158.578 200.86ZM166.967 187.78C165.58 187.78 164.487 188.367 163.687 189.54C162.954 190.593 162.587 191.9 162.587 193.46C162.587 195.033 162.954 196.347 163.687 197.4C164.487 198.573 165.58 199.16 166.967 199.16C168.354 199.16 169.447 198.573 170.247 197.4C170.967 196.347 171.327 195.033 171.327 193.46C171.327 191.913 170.967 190.607 170.247 189.54C169.447 188.367 168.354 187.78 166.967 187.78ZM166.967 185.76C169.1 185.76 170.76 186.553 171.947 188.14C173 189.553 173.52 191.327 173.507 193.46C173.48 195.793 172.934 197.633 171.867 198.98C170.707 200.447 169.074 201.18 166.967 201.18C164.874 201.18 163.234 200.447 162.047 198.98C160.954 197.607 160.407 195.767 160.407 193.46C160.407 191.3 160.927 189.52 161.967 188.12C163.14 186.547 164.807 185.76 166.967 185.76ZM184.475 198.8H185.195C189.248 198.8 191.275 196.987 191.275 193.36C191.275 189.853 189.541 188.1 186.075 188.1H184.475V198.8ZM182.295 186.06H186.075C188.581 186.06 190.468 186.753 191.735 188.14C192.868 189.393 193.435 191.153 193.435 193.42C193.435 195.98 192.621 197.893 190.995 199.16C189.568 200.293 187.588 200.86 185.055 200.86H182.295V186.06ZM204.466 200.94H196.866V186.02H204.246V188.06H199.046V192.22H203.966V194.26H199.046V198.88H204.466V200.94ZM123.616 222.94H116.016V208.02H123.396V210.06H118.196V214.22H123.116V216.26H118.196V220.88H123.616V222.94ZM129.135 214.84H129.635C130.835 214.84 131.681 214.693 132.175 214.4C132.801 214.04 133.115 213.38 133.115 212.42C133.115 210.847 132.375 210.06 130.895 210.06H129.135V214.84ZM126.955 208.02H130.715C132.181 208.02 133.301 208.387 134.075 209.12C134.901 209.867 135.315 210.967 135.315 212.42C135.315 213.807 134.861 214.913 133.955 215.74C133.088 216.5 131.961 216.88 130.575 216.88H129.135V222.94H126.955V208.02ZM139.773 222.86H137.573V208.06H139.773V222.86ZM145.226 209.84C145.226 210.507 145.112 210.987 144.886 211.28C144.552 211.68 144.046 211.913 143.366 211.98V210.78C143.606 210.78 143.799 210.68 143.946 210.48C144.026 210.387 144.066 210.18 144.066 209.86V209.5H143.226V207.32H145.226V209.84ZM155.785 210.32C155.119 209.987 154.225 209.82 153.105 209.82C151.372 209.82 150.505 210.46 150.505 211.74C150.505 212.353 151.045 213 152.125 213.68C153.019 214.253 153.719 214.707 154.225 215.04C154.732 215.373 155.039 215.593 155.145 215.7C156.225 216.647 156.765 217.74 156.765 218.98C156.765 220.367 156.232 221.453 155.165 222.24C154.259 222.907 153.172 223.24 151.905 223.24C150.639 223.24 149.479 223.007 148.425 222.54L148.685 220.32C149.685 220.88 150.785 221.16 151.985 221.16C153.759 221.16 154.645 220.38 154.645 218.82C154.645 218.207 154.105 217.54 153.025 216.82C152.052 216.167 151.312 215.667 150.805 215.32C150.312 214.973 150.045 214.787 150.005 214.76C148.939 213.84 148.405 212.833 148.405 211.74C148.405 210.5 148.885 209.507 149.845 208.76C150.712 208.093 151.805 207.76 153.125 207.76C154.219 207.76 155.225 207.933 156.145 208.28L155.785 210.32Z" fill="#1C3751"/>
<path d="M166 122.444H142V146.222H130V122.444H106V110.556H130V86.7778H142V110.556H166M178 63H94C87.34 63 82 68.2906 82 74.8889V158.111C82 161.264 83.2643 164.288 85.5147 166.518C87.7652 168.747 90.8174 170 94 170H178C181.183 170 184.235 168.747 186.485 166.518C188.736 164.288 190 161.264 190 158.111V74.8889C190 71.7358 188.736 68.7118 186.485 66.4822C184.235 64.2526 181.183 63 178 63Z" fill="#1C3751"/>
</g>
<defs>
<filter id="filter0_d_7_12" x="0" y="0" width="277" height="277" filterUnits="userSpaceOnUse" color-interpolation-filters="sRGB">
<feFlood flood-opacity="0" result="BackgroundImageFix"/>
<feColorMatrix in="SourceAlpha" type="matrix" values="0 0 0 0 0 0 0 0 0 0 0 0 0 0 0 0 0 0 127 0" result="hardAlpha"/>
<feOffset dx="2" dy="4"/>
<feGaussianBlur stdDeviation="5"/>
<feComposite in2="hardAlpha" operator="out"/>
<feColorMatrix type="matrix" values="0 0 0 0 0 0 0 0 0 0 0 0 0 0 0 0 0 0 0.25 0"/>
<feBlend mode="normal" in2="BackgroundImageFix" result="effect1_dropShadow_7_12"/>
<feBlend mode="normal" in="SourceGraphic" in2="effect1_dropShadow_7_12" result="shape"/>
</filter>
<clipPath id="clip0_7_12">
<rect width="277" height="277" fill="white"/>
</clipPath>
</defs>
</svg>
