<svg width="320" height="320" viewBox="0 0 320 320" fill="none" xmlns="http://www.w3.org/2000/svg">
<g filter="url(#filter0_d_66_4)">
<rect x="8" y="6" width="300" height="300" rx="25" fill="#FAB84B"/>
</g>
<path d="M102.11 233.6C101.214 234.096 99.8139 234.344 97.9099 234.344C95.1739 234.344 92.9899 233.512 91.3579 231.848C89.7419 230.152 88.9339 227.92 88.9339 225.152C88.9339 222.416 89.7579 220.2 91.4059 218.504C93.0539 216.808 95.2219 215.96 97.9099 215.96C99.8619 215.96 101.262 216.176 102.11 216.608L101.918 219.056C100.83 218.624 99.4939 218.408 97.9099 218.408C95.9739 218.408 94.4299 219.032 93.2779 220.28C92.1259 221.528 91.5499 223.152 91.5499 225.152C91.5499 227.232 92.1099 228.864 93.2299 230.048C94.3659 231.28 95.9259 231.896 97.9099 231.896C99.5899 231.896 100.926 231.632 101.918 231.104L102.11 233.6ZM114.195 218.336C112.531 218.336 111.219 219.04 110.259 220.448C109.379 221.712 108.939 223.28 108.939 225.152C108.939 227.04 109.379 228.616 110.259 229.88C111.219 231.288 112.531 231.992 114.195 231.992C115.859 231.992 117.171 231.288 118.131 229.88C118.995 228.616 119.427 227.04 119.427 225.152C119.427 223.296 118.995 221.728 118.131 220.448C117.171 219.04 115.859 218.336 114.195 218.336ZM114.195 215.912C116.755 215.912 118.747 216.864 120.171 218.768C121.435 220.464 122.059 222.592 122.043 225.152C122.011 227.952 121.355 230.16 120.075 231.776C118.683 233.536 116.723 234.416 114.195 234.416C111.683 234.416 109.715 233.536 108.291 231.776C106.979 230.128 106.323 227.92 106.323 225.152C106.323 222.56 106.947 220.424 108.195 218.744C109.603 216.856 111.603 215.912 114.195 215.912ZM138.942 234.128H136.062L128.382 220.712V234.128H125.79V216.224H128.55L136.35 229.856V216.224H138.942V234.128ZM151.532 218.984C150.732 218.584 149.66 218.384 148.316 218.384C146.236 218.384 145.196 219.152 145.196 220.688C145.196 221.424 145.844 222.2 147.14 223.016C148.212 223.704 149.052 224.248 149.66 224.648C150.268 225.048 150.636 225.312 150.764 225.44C152.06 226.576 152.708 227.888 152.708 229.376C152.708 231.04 152.068 232.344 150.788 233.288C149.7 234.088 148.396 234.488 146.876 234.488C145.356 234.488 143.964 234.208 142.7 233.648L143.012 230.984C144.212 231.656 145.532 231.992 146.972 231.992C149.1 231.992 150.164 231.056 150.164 229.184C150.164 228.448 149.516 227.648 148.22 226.784C147.052 226 146.164 225.4 145.556 224.984C144.964 224.568 144.644 224.344 144.596 224.312C143.316 223.208 142.676 222 142.676 220.688C142.676 219.2 143.252 218.008 144.404 217.112C145.444 216.312 146.756 215.912 148.34 215.912C149.652 215.912 150.86 216.12 151.964 216.536L151.532 218.984ZM169.386 216.224V227.816C169.386 230.216 168.626 231.984 167.106 233.12C165.97 233.984 164.562 234.416 162.882 234.416C161.218 234.416 159.81 233.984 158.658 233.12C157.154 232 156.402 230.232 156.402 227.816V216.224H159.018V227.696C159.018 228.992 159.346 230.016 160.002 230.768C160.674 231.568 161.634 231.968 162.882 231.968C164.13 231.968 165.106 231.568 165.81 230.768C166.45 230.032 166.77 229.008 166.77 227.696V216.224H169.386ZM182.767 234.032H173.743V216.272H176.335V231.56H182.767V234.032ZM196.024 218.648H191.152V234.032H188.536V218.648H183.688V216.272H196.024V218.648ZM208.19 227.072L205.286 219.68L202.358 227.072H208.19ZM213.758 234.128H210.974L209.15 229.544H201.374L199.526 234.128H196.766L204.062 216.224H206.678L213.758 234.128ZM219.255 223.616H220.479C221.535 223.616 222.367 223.424 222.975 223.04C223.711 222.608 224.079 221.952 224.079 221.072C224.079 220.032 223.767 219.352 223.143 219.032C222.711 218.824 221.831 218.72 220.503 218.72H219.255V223.616ZM228.183 234.032H225.423L222.831 228.032C222.479 227.216 222.159 226.704 221.871 226.496C221.519 226.224 220.959 226.088 220.191 226.088H219.255V234.032H216.687V216.272H221.391C224.911 216.272 226.671 217.872 226.671 221.072C226.671 222.128 226.343 223.008 225.687 223.712C225.031 224.416 224.175 224.872 223.119 225.08C224.015 225.256 224.679 225.848 225.111 226.856L228.183 234.032ZM94.6136 244.984C93.8136 244.584 92.7416 244.384 91.3976 244.384C89.3176 244.384 88.2776 245.152 88.2776 246.688C88.2776 247.424 88.9256 248.2 90.2216 249.016C91.2936 249.704 92.1336 250.248 92.7416 250.648C93.3496 251.048 93.7176 251.312 93.8456 251.44C95.1416 252.576 95.7896 253.888 95.7896 255.376C95.7896 257.04 95.1496 258.344 93.8696 259.288C92.7816 260.088 91.4776 260.488 89.9576 260.488C88.4376 260.488 87.0456 260.208 85.7816 259.648L86.0936 256.984C87.2936 257.656 88.6136 257.992 90.0536 257.992C92.1816 257.992 93.2456 257.056 93.2456 255.184C93.2456 254.448 92.5976 253.648 91.3016 252.784C90.1336 252 89.2456 251.4 88.6376 250.984C88.0456 250.568 87.7256 250.344 87.6776 250.312C86.3976 249.208 85.7576 248 85.7576 246.688C85.7576 245.2 86.3336 244.008 87.4856 243.112C88.5256 242.312 89.8376 241.912 91.4216 241.912C92.7336 241.912 93.9416 242.12 95.0456 242.536L94.6136 244.984ZM106.684 244.336C105.02 244.336 103.708 245.04 102.748 246.448C101.868 247.712 101.428 249.28 101.428 251.152C101.428 253.04 101.868 254.616 102.748 255.88C103.708 257.288 105.02 257.992 106.684 257.992C108.348 257.992 109.66 257.288 110.62 255.88C111.484 254.616 111.916 253.04 111.916 251.152C111.916 249.296 111.484 247.728 110.62 246.448C109.66 245.04 108.348 244.336 106.684 244.336ZM106.684 241.912C109.244 241.912 111.236 242.864 112.66 244.768C113.924 246.464 114.548 248.592 114.532 251.152C114.5 253.952 113.844 256.16 112.564 257.776C111.172 259.536 109.212 260.416 106.684 260.416C104.172 260.416 102.204 259.536 100.78 257.776C99.4677 256.128 98.8117 253.92 98.8117 251.152C98.8117 248.56 99.4357 246.424 100.684 244.744C102.092 242.856 104.092 241.912 106.684 241.912ZM127.278 260.032H118.254V242.272H120.846V257.56H127.278V260.032ZM142.551 259.6C141.655 260.096 140.255 260.344 138.351 260.344C135.615 260.344 133.431 259.512 131.799 257.848C130.183 256.152 129.375 253.92 129.375 251.152C129.375 248.416 130.199 246.2 131.847 244.504C133.495 242.808 135.663 241.96 138.351 241.96C140.303 241.96 141.703 242.176 142.551 242.608L142.359 245.056C141.271 244.624 139.935 244.408 138.351 244.408C136.415 244.408 134.871 245.032 133.719 246.28C132.567 247.528 131.991 249.152 131.991 251.152C131.991 253.232 132.551 254.864 133.671 256.048C134.807 257.28 136.367 257.896 138.351 257.896C140.031 257.896 141.367 257.632 142.359 257.104L142.551 259.6ZM149.813 260.032H147.173V242.272H149.813V260.032ZM164.348 244.648H159.476V260.032H156.86V244.648H152.012V242.272H164.348V244.648ZM176.514 253.072L173.61 245.68L170.682 253.072H176.514ZM182.082 260.128H179.298L177.474 255.544H169.698L167.85 260.128H165.09L172.386 242.224H175.002L182.082 260.128ZM192.188 243.52C191.276 243.52 190.452 243.68 189.716 244C188.98 244.304 188.356 244.76 187.844 245.368C187.332 245.96 186.94 246.688 186.668 247.552C186.396 248.4 186.26 249.36 186.26 250.432C186.26 251.84 186.476 253.064 186.908 254.104C187.356 255.144 188.012 255.944 188.876 256.504C189.756 257.064 190.852 257.344 192.164 257.344C192.916 257.344 193.628 257.28 194.3 257.152C194.972 257.024 195.628 256.864 196.268 256.672V258.544C195.628 258.784 194.964 258.96 194.276 259.072C193.604 259.184 192.796 259.24 191.852 259.24C190.108 259.24 188.652 258.88 187.484 258.16C186.316 257.44 185.436 256.416 184.844 255.088C184.268 253.76 183.98 252.2 183.98 250.408C183.98 249.112 184.156 247.928 184.508 246.856C184.876 245.784 185.404 244.856 186.092 244.072C186.796 243.288 187.66 242.688 188.684 242.272C189.708 241.84 190.884 241.624 192.212 241.624C193.092 241.624 193.94 241.712 194.756 241.888C195.572 242.064 196.3 242.312 196.94 242.632L196.076 244.456C195.548 244.216 194.956 244 194.3 243.808C193.66 243.616 192.956 243.52 192.188 243.52ZM193.868 262.336C193.868 262.848 193.732 263.28 193.46 263.632C193.204 264 192.812 264.28 192.284 264.472C191.756 264.664 191.1 264.76 190.316 264.76C190.076 264.76 189.844 264.744 189.62 264.712C189.412 264.696 189.244 264.672 189.116 264.64V263.32C189.26 263.352 189.452 263.376 189.692 263.392C189.932 263.424 190.164 263.44 190.388 263.44C190.964 263.44 191.404 263.36 191.708 263.2C192.012 263.056 192.164 262.784 192.164 262.384C192.164 261.968 191.948 261.664 191.516 261.472C191.1 261.28 190.588 261.144 189.98 261.064L191.012 259H192.404L191.78 260.272C192.164 260.352 192.516 260.472 192.836 260.632C193.156 260.808 193.404 261.032 193.58 261.304C193.772 261.576 193.868 261.92 193.868 262.336ZM210.76 259L208.696 253.696H201.904L199.864 259H197.68L204.376 241.792H206.32L212.992 259H210.76ZM206.128 246.592C206.08 246.464 206 246.232 205.888 245.896C205.776 245.56 205.664 245.216 205.552 244.864C205.456 244.496 205.376 244.216 205.312 244.024C205.232 244.344 205.144 244.672 205.048 245.008C204.968 245.328 204.88 245.624 204.784 245.896C204.704 246.168 204.632 246.4 204.568 246.592L202.624 251.776H208.048L206.128 246.592ZM200.92 240.184C200.968 239.704 201.056 239.28 201.184 238.912C201.328 238.528 201.512 238.208 201.736 237.952C201.96 237.68 202.224 237.472 202.528 237.328C202.832 237.184 203.176 237.112 203.56 237.112C203.912 237.112 204.248 237.184 204.568 237.328C204.904 237.456 205.224 237.616 205.528 237.808C205.832 237.984 206.12 238.144 206.392 238.288C206.68 238.416 206.952 238.48 207.208 238.48C207.576 238.48 207.856 238.368 208.048 238.144C208.256 237.904 208.416 237.552 208.528 237.088H209.728C209.632 238.016 209.36 238.76 208.912 239.32C208.464 239.88 207.864 240.16 207.112 240.16C206.776 240.16 206.448 240.096 206.128 239.968C205.808 239.824 205.488 239.664 205.168 239.488C204.864 239.296 204.568 239.136 204.28 239.008C204.008 238.864 203.736 238.792 203.464 238.792C203.08 238.792 202.792 238.912 202.6 239.152C202.408 239.376 202.256 239.72 202.144 240.184H200.92ZM222.512 244.336C220.848 244.336 219.536 245.04 218.576 246.448C217.696 247.712 217.256 249.28 217.256 251.152C217.256 253.04 217.696 254.616 218.576 255.88C219.536 257.288 220.848 257.992 222.512 257.992C224.176 257.992 225.488 257.288 226.448 255.88C227.312 254.616 227.744 253.04 227.744 251.152C227.744 249.296 227.312 247.728 226.448 246.448C225.488 245.04 224.176 244.336 222.512 244.336ZM222.512 241.912C225.072 241.912 227.064 242.864 228.488 244.768C229.752 246.464 230.376 248.592 230.36 251.152C230.328 253.952 229.672 256.16 228.392 257.776C227 259.536 225.04 260.416 222.512 260.416C220 260.416 218.032 259.536 216.608 257.776C215.296 256.128 214.64 253.92 214.64 251.152C214.64 248.56 215.264 246.424 216.512 244.744C217.92 242.856 219.92 241.912 222.512 241.912Z" fill="#1C3751"/>
<path d="M158.346 173.1H186.743C189.503 173.1 192.151 172.004 194.102 170.052C196.054 168.1 197.151 165.453 197.151 162.693V138.905C197.151 136.144 196.054 133.497 194.102 131.546C192.151 129.594 189.503 128.497 186.743 128.497H148.087C146.66 128.497 145.292 128.789 144.043 129.312C139.335 126.818 134.087 125.517 128.759 125.524C125.743 125.521 122.741 125.935 119.838 126.755V83.8942C119.838 80.7396 121.092 77.7143 123.322 75.4837C125.553 73.2531 128.578 72 131.733 72H167.415V107.682C167.415 110.837 168.668 113.862 170.899 116.093C173.129 118.324 176.155 119.577 179.309 119.577H214.992V179.047C214.992 182.202 213.739 185.227 211.508 187.458C209.277 189.689 206.252 190.942 203.098 190.942H173.255C172.936 188.718 171.903 186.658 170.311 185.072L158.346 173.1ZM188.23 155.259V162.693C188.23 163.087 188.073 163.465 187.794 163.744C187.516 164.023 187.137 164.18 186.743 164.18H164.442V155.259H188.23ZM164.442 146.339V137.418H186.743C187.137 137.418 187.516 137.575 187.794 137.853C188.073 138.132 188.23 138.51 188.23 138.905V146.339H164.442ZM176.336 74.9735V107.682C176.336 108.471 176.649 109.227 177.207 109.785C177.764 110.343 178.521 110.656 179.309 110.656H212.018L176.336 74.9735ZM150.573 173.737C154.461 168.268 156.153 161.537 155.313 154.88C154.473 148.222 151.163 142.123 146.038 137.791C140.913 133.459 134.347 131.21 127.643 131.491C120.938 131.772 114.583 134.561 109.838 139.306C105.093 144.051 102.304 150.406 102.023 157.11C101.743 163.815 103.991 170.38 108.323 175.505C112.655 180.63 118.754 183.941 125.412 184.781C132.07 185.621 138.8 183.929 144.269 180.041L159.803 195.58C160.211 196.019 160.704 196.37 161.251 196.614C161.798 196.858 162.389 196.989 162.987 196.999C163.586 197.01 164.181 196.9 164.737 196.675C165.292 196.451 165.796 196.117 166.22 195.694C166.644 195.27 166.977 194.766 167.202 194.21C167.426 193.655 167.536 193.06 167.526 192.461C167.515 191.862 167.384 191.271 167.14 190.724C166.896 190.177 166.545 189.685 166.107 189.276L150.573 173.737ZM146.6 158.233C146.6 160.576 146.139 162.896 145.242 165.06C144.346 167.225 143.031 169.192 141.375 170.848C139.718 172.505 137.751 173.819 135.587 174.716C133.422 175.612 131.102 176.074 128.759 176.074C126.416 176.074 124.096 175.612 121.932 174.716C119.767 173.819 117.8 172.505 116.143 170.848C114.487 169.192 113.173 167.225 112.276 165.06C111.379 162.896 110.918 160.576 110.918 158.233C110.918 153.501 112.798 148.963 116.143 145.617C119.489 142.271 124.027 140.391 128.759 140.391C133.491 140.391 138.029 142.271 141.375 145.617C144.721 148.963 146.6 153.501 146.6 158.233Z" fill="#1C3751"/>
<defs>
<filter id="filter0_d_66_4" x="0" y="0" width="320" height="320" filterUnits="userSpaceOnUse" color-interpolation-filters="sRGB">
<feFlood flood-opacity="0" result="BackgroundImageFix"/>
<feColorMatrix in="SourceAlpha" type="matrix" values="0 0 0 0 0 0 0 0 0 0 0 0 0 0 0 0 0 0 127 0" result="hardAlpha"/>
<feOffset dx="2" dy="4"/>
<feGaussianBlur stdDeviation="5"/>
<feComposite in2="hardAlpha" operator="out"/>
<feColorMatrix type="matrix" values="0 0 0 0 0 0 0 0 0 0 0 0 0 0 0 0 0 0 0.25 0"/>
<feBlend mode="normal" in2="BackgroundImageFix" result="effect1_dropShadow_66_4"/>
<feBlend mode="normal" in="SourceGraphic" in2="effect1_dropShadow_66_4" result="shape"/>
</filter>
</defs>
</svg>
