<svg width="278" height="277" viewBox="0 0 278 277" fill="none" xmlns="http://www.w3.org/2000/svg">
<g clip-path="url(#clip0_7_17)">
<g filter="url(#filter0_d_7_17)">
<path d="M241 6H33C19.1929 6 8 17.1929 8 31V238C8 251.807 19.1929 263 33 263H241C254.807 263 266 251.807 266 238V31C266 17.1929 254.807 6 241 6Z" fill="#FAB84B"/>
</g>
<path d="M65.0052 192.48V200.22C63.5785 200.82 62.0185 201.12 60.3252 201.12C58.0318 201.12 56.2052 200.413 54.8452 199C53.5118 197.613 52.8452 195.767 52.8452 193.46C52.8452 191.153 53.5318 189.307 54.9052 187.92C56.2785 186.507 58.0918 185.8 60.3452 185.8C62.0785 185.8 63.4452 186.04 64.4452 186.52L64.1852 188.64C63.2118 188.107 61.9318 187.84 60.3452 187.84C58.7052 187.84 57.4052 188.367 56.4452 189.42C55.5118 190.433 55.0452 191.78 55.0452 193.46C55.0452 195.153 55.4985 196.507 56.4052 197.52C57.3385 198.56 58.6452 199.08 60.3252 199.08C61.4052 199.08 62.2252 198.973 62.7852 198.76V194.52H59.7052V192.48H65.0052ZM76.5673 200.94H68.9673V186.02H76.3473V188.06H71.1473V192.22H76.0673V194.26H71.1473V198.88H76.5673V200.94ZM82.1458 192.18H83.1658C84.0458 192.18 84.7391 192.02 85.2458 191.7C85.8591 191.34 86.1658 190.793 86.1658 190.06C86.1658 189.193 85.9058 188.627 85.3858 188.36C85.0258 188.187 84.2924 188.1 83.1858 188.1H82.1458V192.18ZM89.5858 200.86H87.2858L85.1258 195.86C84.8324 195.18 84.5658 194.753 84.3258 194.58C84.0324 194.353 83.5658 194.24 82.9258 194.24H82.1458V200.86H80.0058V186.06H83.9258C86.8591 186.06 88.3258 187.393 88.3258 190.06C88.3258 190.94 88.0524 191.673 87.5058 192.26C86.9591 192.847 86.2458 193.227 85.3658 193.4C86.1124 193.547 86.6658 194.04 87.0258 194.88L89.5858 200.86ZM99.5947 200.94H91.9947V186.02H99.3747V188.06H94.1747V192.22H99.0947V194.26H94.1747V198.88H99.5947V200.94ZM113.753 200.94H111.353L104.953 189.76V200.94H102.793V186.02H105.093L111.593 197.38V186.02H113.753V200.94ZM127.864 200.5C127.118 200.913 125.951 201.12 124.364 201.12C122.084 201.12 120.264 200.427 118.904 199.04C117.558 197.627 116.884 195.767 116.884 193.46C116.884 191.18 117.571 189.333 118.944 187.92C120.318 186.507 122.124 185.8 124.364 185.8C125.991 185.8 127.158 185.98 127.864 186.34L127.704 188.38C126.798 188.02 125.684 187.84 124.364 187.84C122.751 187.84 121.464 188.36 120.504 189.4C119.544 190.44 119.064 191.793 119.064 193.46C119.064 195.193 119.531 196.553 120.464 197.54C121.411 198.567 122.711 199.08 124.364 199.08C125.764 199.08 126.878 198.86 127.704 198.42L127.864 200.5ZM133.916 200.86H131.716V186.06H133.916V200.86ZM145.268 195.06L142.848 188.9L140.408 195.06H145.268ZM149.908 200.94H147.588L146.068 197.12H139.588L138.048 200.94H135.748L141.828 186.02H144.008L149.908 200.94ZM167.53 200.94H165.39V189.4L160.85 200.84H159.09L154.39 189.4V200.94H152.23V186.02H155.11L159.95 197.88L164.65 186.02H167.53V200.94ZM179.185 200.94H171.585V186.02H178.965V188.06H173.765V192.22H178.685V194.26H173.765V198.88H179.185V200.94ZM193.343 200.94H190.943L184.543 189.76V200.94H182.383V186.02H184.683L191.183 197.38V186.02H193.343V200.94ZM205.774 188.04H201.714V200.86H199.534V188.04H195.494V186.06H205.774V188.04ZM213.893 187.78C212.506 187.78 211.413 188.367 210.613 189.54C209.879 190.593 209.513 191.9 209.513 193.46C209.513 195.033 209.879 196.347 210.613 197.4C211.413 198.573 212.506 199.16 213.893 199.16C215.279 199.16 216.373 198.573 217.173 197.4C217.893 196.347 218.253 195.033 218.253 193.46C218.253 191.913 217.893 190.607 217.173 189.54C216.373 188.367 215.279 187.78 213.893 187.78ZM213.893 185.76C216.026 185.76 217.686 186.553 218.873 188.14C219.926 189.553 220.446 191.327 220.433 193.46C220.406 195.793 219.859 197.633 218.793 198.98C217.633 200.447 215.999 201.18 213.893 201.18C211.799 201.18 210.159 200.447 208.973 198.98C207.879 197.607 207.333 195.767 207.333 193.46C207.333 191.3 207.853 189.52 208.893 188.12C210.066 186.547 211.733 185.76 213.893 185.76ZM80.248 220.8H80.968C85.0213 220.8 87.048 218.987 87.048 215.36C87.048 211.853 85.3146 210.1 81.848 210.1H80.248V220.8ZM78.068 208.06H81.848C84.3546 208.06 86.2413 208.753 87.508 210.14C88.6413 211.393 89.208 213.153 89.208 215.42C89.208 217.98 88.3946 219.893 86.768 221.16C85.3413 222.293 83.3613 222.86 80.828 222.86H78.068V208.06ZM100.239 222.94H92.6392V208.02H100.019V210.06H94.8192V214.22H99.7392V216.26H94.8192V220.88H100.239V222.94ZM116.743 222.94H109.143V208.02H116.523V210.06H111.323V214.22H116.243V216.26H111.323V220.88H116.743V222.94ZM126.862 210.32C126.195 209.987 125.302 209.82 124.182 209.82C122.448 209.82 121.582 210.46 121.582 211.74C121.582 212.353 122.122 213 123.202 213.68C124.095 214.253 124.795 214.707 125.302 215.04C125.808 215.373 126.115 215.593 126.222 215.7C127.302 216.647 127.842 217.74 127.842 218.98C127.842 220.367 127.308 221.453 126.242 222.24C125.335 222.907 124.248 223.24 122.982 223.24C121.715 223.24 120.555 223.007 119.502 222.54L119.762 220.32C120.762 220.88 121.862 221.16 123.062 221.16C124.835 221.16 125.722 220.38 125.722 218.82C125.722 218.207 125.182 217.54 124.102 216.82C123.128 216.167 122.388 215.667 121.882 215.32C121.388 214.973 121.122 214.787 121.082 214.76C120.015 213.84 119.482 212.833 119.482 211.74C119.482 210.5 119.962 209.507 120.922 208.76C121.788 208.093 122.882 207.76 124.202 207.76C125.295 207.76 126.302 207.933 127.222 208.28L126.862 210.32ZM139.7 210.04H135.64V222.86H133.46V210.04H129.42V208.06H139.7V210.04ZM147.818 209.78C146.432 209.78 145.338 210.367 144.538 211.54C143.805 212.593 143.438 213.9 143.438 215.46C143.438 217.033 143.805 218.347 144.538 219.4C145.338 220.573 146.432 221.16 147.818 221.16C149.205 221.16 150.298 220.573 151.098 219.4C151.818 218.347 152.178 217.033 152.178 215.46C152.178 213.913 151.818 212.607 151.098 211.54C150.298 210.367 149.205 209.78 147.818 209.78ZM147.818 207.76C149.952 207.76 151.612 208.553 152.798 210.14C153.852 211.553 154.372 213.327 154.358 215.46C154.332 217.793 153.785 219.633 152.718 220.98C151.558 222.447 149.925 223.18 147.818 223.18C145.725 223.18 144.085 222.447 142.898 220.98C141.805 219.607 141.258 217.767 141.258 215.46C141.258 213.3 141.778 211.52 142.818 210.12C143.992 208.547 145.658 207.76 147.818 207.76ZM163.581 209.82C162.181 209.82 161.081 210.407 160.281 211.58C159.561 212.62 159.201 213.927 159.201 215.5C159.201 217.073 159.561 218.387 160.281 219.44C161.081 220.6 162.181 221.18 163.581 221.18C164.954 221.18 166.041 220.6 166.841 219.44C167.574 218.387 167.941 217.073 167.941 215.5C167.941 213.94 167.574 212.633 166.841 211.58C166.041 210.407 164.954 209.82 163.581 209.82ZM167.081 225.64L164.581 223.14C164.341 223.18 164.007 223.2 163.581 223.2C161.474 223.2 159.841 222.48 158.681 221.04C157.574 219.653 157.021 217.807 157.021 215.5C157.021 213.34 157.541 211.56 158.581 210.16C159.781 208.587 161.447 207.8 163.581 207.8C165.687 207.8 167.341 208.593 168.541 210.18C169.594 211.593 170.121 213.367 170.121 215.5C170.121 217.047 169.841 218.42 169.281 219.62C168.707 220.873 167.874 221.793 166.781 222.38L170.001 225.64H167.081ZM184.123 208.02V217.68C184.123 219.68 183.489 221.153 182.223 222.1C181.276 222.82 180.103 223.18 178.703 223.18C177.316 223.18 176.143 222.82 175.183 222.1C173.929 221.167 173.303 219.693 173.303 217.68V208.02H175.483V217.58C175.483 218.66 175.756 219.513 176.303 220.14C176.863 220.807 177.663 221.14 178.703 221.14C179.743 221.14 180.556 220.807 181.143 220.14C181.676 219.527 181.943 218.673 181.943 217.58V208.02H184.123ZM195.474 222.94H187.874V208.02H195.254V210.06H190.054V214.22H194.974V216.26H190.054V220.88H195.474V222.94Z" fill="#1C3751"/>
<path d="M166.342 76.074L155.642 70.4294C146.248 65.4782 141.55 63 136.5 63C131.45 63 126.752 65.4729 117.358 70.4294L115.64 71.3379L163.378 98.7491L184.864 87.9437C181.408 84.0086 175.833 81.0681 166.342 76.0632V76.074ZM188.652 95.0613L167.262 105.813V122.134C167.262 123.203 166.84 124.229 166.087 124.985C165.335 125.741 164.314 126.166 163.25 126.166C162.186 126.166 161.165 125.741 160.413 124.985C159.66 124.229 159.237 123.203 159.237 122.134V109.839L140.513 119.247V170C144.354 169.038 148.725 166.737 155.642 163.087L166.342 157.442C177.85 151.373 183.607 148.341 186.806 142.884C190 137.433 190 130.644 190 117.081V116.452C190 106.275 190 99.9103 188.652 95.0613ZM132.487 170V119.252L84.3482 95.0613C83 99.9103 83 106.275 83 116.441V117.07C83 130.644 83 137.433 86.1939 142.884C89.3932 148.341 95.1498 151.378 106.658 157.448L117.358 163.087C124.275 166.737 128.646 169.038 132.487 170ZM88.136 87.9491L136.5 112.248L154.749 103.082L107.209 75.7837L106.658 76.074C97.1721 81.0735 91.5921 84.014 88.136 87.9545V87.9491Z" fill="#1C3751"/>
</g>
<defs>
<filter id="filter0_d_7_17" x="0" y="0" width="278" height="277" filterUnits="userSpaceOnUse" color-interpolation-filters="sRGB">
<feFlood flood-opacity="0" result="BackgroundImageFix"/>
<feColorMatrix in="SourceAlpha" type="matrix" values="0 0 0 0 0 0 0 0 0 0 0 0 0 0 0 0 0 0 127 0" result="hardAlpha"/>
<feOffset dx="2" dy="4"/>
<feGaussianBlur stdDeviation="5"/>
<feComposite in2="hardAlpha" operator="out"/>
<feColorMatrix type="matrix" values="0 0 0 0 0 0 0 0 0 0 0 0 0 0 0 0 0 0 0.25 0"/>
<feBlend mode="normal" in2="BackgroundImageFix" result="effect1_dropShadow_7_17"/>
<feBlend mode="normal" in="SourceGraphic" in2="effect1_dropShadow_7_17" result="shape"/>
</filter>
<clipPath id="clip0_7_17">
<rect width="278" height="277" fill="white"/>
</clipPath>
</defs>
</svg>
