<svg width="277" height="277" viewBox="0 0 277 277" fill="none" xmlns="http://www.w3.org/2000/svg">
<g clip-path="url(#clip0_7_22)">
<g filter="url(#filter0_d_7_22)">
<path d="M240 6H33C19.1929 6 8 17.1929 8 31V238C8 251.807 19.1929 263 33 263H240C253.807 263 265 251.807 265 238V31C265 17.1929 253.807 6 240 6Z" fill="#FAB84B"/>
</g>
<path d="M136.5 65C106.914 65 83 89.075 83 118.5C83 132.689 88.6366 146.297 98.6698 156.33C103.638 161.298 109.536 165.239 116.026 167.928C122.517 170.616 129.474 172 136.5 172C150.689 172 164.297 166.363 174.33 156.33C184.363 146.297 190 132.689 190 118.5C190 111.474 188.616 104.517 185.928 98.0264C183.239 91.5355 179.298 85.6377 174.33 80.6698C169.362 75.7019 163.464 71.7611 156.974 69.0724C150.483 66.3838 143.526 65 136.5 65ZM155.76 98.919C161.485 98.919 166.086 103.52 166.086 109.245C166.086 114.969 161.485 119.57 155.76 119.57C153.022 119.57 150.395 118.482 148.459 116.546C146.522 114.609 145.434 111.983 145.434 109.245C145.381 103.52 150.035 98.919 155.76 98.919ZM123.66 90.466C130.615 90.466 136.286 96.137 136.286 103.092C136.286 110.047 130.615 115.825 123.66 115.825C116.705 115.825 111.034 110.047 111.034 103.092C111.034 96.0835 116.652 90.466 123.66 90.466ZM123.66 139.312V159.374C110.82 155.361 100.655 145.464 96.161 132.838C101.725 126.846 115.796 123.85 123.66 123.85C126.496 123.85 130.08 124.224 133.825 124.973C125.051 129.628 123.66 135.781 123.66 139.312ZM136.5 161.3C135.002 161.3 133.611 161.3 132.22 161.086V139.312C132.22 131.715 147.949 127.916 155.76 127.916C161.485 127.916 171.275 130.002 176.304 134.068C170.045 149.958 154.583 161.3 136.5 161.3Z" fill="#1C3751"/>
<path d="M65.5052 196.48V204.22C64.0785 204.82 62.5185 205.12 60.8252 205.12C58.5318 205.12 56.7052 204.413 55.3452 203C54.0118 201.613 53.3452 199.767 53.3452 197.46C53.3452 195.153 54.0318 193.307 55.4052 191.92C56.7785 190.507 58.5918 189.8 60.8452 189.8C62.5785 189.8 63.9452 190.04 64.9452 190.52L64.6852 192.64C63.7118 192.107 62.4318 191.84 60.8452 191.84C59.2052 191.84 57.9052 192.367 56.9452 193.42C56.0118 194.433 55.5452 195.78 55.5452 197.46C55.5452 199.153 55.9985 200.507 56.9052 201.52C57.8385 202.56 59.1452 203.08 60.8252 203.08C61.9052 203.08 62.7252 202.973 63.2852 202.76V198.52H60.2052V196.48H65.5052ZM77.0673 204.94H69.4673V190.02H76.8473V192.06H71.6473V196.22H76.5673V198.26H71.6473V202.88H77.0673V204.94ZM82.6458 196.18H83.6658C84.5458 196.18 85.2391 196.02 85.7458 195.7C86.3591 195.34 86.6658 194.793 86.6658 194.06C86.6658 193.193 86.4058 192.627 85.8858 192.36C85.5258 192.187 84.7924 192.1 83.6858 192.1H82.6458V196.18ZM90.0858 204.86H87.7858L85.6258 199.86C85.3324 199.18 85.0658 198.753 84.8258 198.58C84.5324 198.353 84.0658 198.24 83.4258 198.24H82.6458V204.86H80.5058V190.06H84.4258C87.3591 190.06 88.8258 191.393 88.8258 194.06C88.8258 194.94 88.5524 195.673 88.0058 196.26C87.4591 196.847 86.7458 197.227 85.8658 197.4C86.6124 197.547 87.1658 198.04 87.5258 198.88L90.0858 204.86ZM100.095 204.94H92.4947V190.02H99.8747V192.06H94.6747V196.22H99.5947V198.26H94.6747V202.88H100.095V204.94ZM114.253 204.94H111.853L105.453 193.76V204.94H103.293V190.02H105.593L112.093 201.38V190.02H114.253V204.94ZM128.364 204.5C127.618 204.913 126.451 205.12 124.864 205.12C122.584 205.12 120.764 204.427 119.404 203.04C118.058 201.627 117.384 199.767 117.384 197.46C117.384 195.18 118.071 193.333 119.444 191.92C120.818 190.507 122.624 189.8 124.864 189.8C126.491 189.8 127.658 189.98 128.364 190.34L128.204 192.38C127.298 192.02 126.184 191.84 124.864 191.84C123.251 191.84 121.964 192.36 121.004 193.4C120.044 194.44 119.564 195.793 119.564 197.46C119.564 199.193 120.031 200.553 120.964 201.54C121.911 202.567 123.211 203.08 124.864 203.08C126.264 203.08 127.378 202.86 128.204 202.42L128.364 204.5ZM134.416 204.86H132.216V190.06H134.416V204.86ZM145.768 199.06L143.348 192.9L140.908 199.06H145.768ZM150.408 204.94H148.088L146.568 201.12H140.088L138.548 204.94H136.248L142.328 190.02H144.508L150.408 204.94ZM168.03 204.94H165.89V193.4L161.35 204.84H159.59L154.89 193.4V204.94H152.73V190.02H155.61L160.45 201.88L165.15 190.02H168.03V204.94ZM179.685 204.94H172.085V190.02H179.465V192.06H174.265V196.22H179.185V198.26H174.265V202.88H179.685V204.94ZM193.843 204.94H191.443L185.043 193.76V204.94H182.883V190.02H185.183L191.683 201.38V190.02H193.843V204.94ZM206.274 192.04H202.214V204.86H200.034V192.04H195.994V190.06H206.274V192.04ZM214.393 191.78C213.006 191.78 211.913 192.367 211.113 193.54C210.379 194.593 210.013 195.9 210.013 197.46C210.013 199.033 210.379 200.347 211.113 201.4C211.913 202.573 213.006 203.16 214.393 203.16C215.779 203.16 216.873 202.573 217.673 201.4C218.393 200.347 218.753 199.033 218.753 197.46C218.753 195.913 218.393 194.607 217.673 193.54C216.873 192.367 215.779 191.78 214.393 191.78ZM214.393 189.76C216.526 189.76 218.186 190.553 219.373 192.14C220.426 193.553 220.946 195.327 220.933 197.46C220.906 199.793 220.359 201.633 219.293 202.98C218.133 204.447 216.499 205.18 214.393 205.18C212.299 205.18 210.659 204.447 209.473 202.98C208.379 201.607 207.833 199.767 207.833 197.46C207.833 195.3 208.353 193.52 209.393 192.12C210.566 190.547 212.233 189.76 214.393 189.76ZM89.7714 224.8H90.4914C94.5447 224.8 96.5714 222.987 96.5714 219.36C96.5714 215.853 94.8381 214.1 91.3714 214.1H89.7714V224.8ZM87.5914 212.06H91.3714C93.8781 212.06 95.7647 212.753 97.0314 214.14C98.1647 215.393 98.7314 217.153 98.7314 219.42C98.7314 221.98 97.9181 223.893 96.2914 225.16C94.8647 226.293 92.8847 226.86 90.3514 226.86H87.5914V212.06ZM109.763 226.94H102.163V212.02H109.543V214.06H104.343V218.22H109.263V220.26H104.343V224.88H109.763V226.94ZM125.647 214.1H120.627V218.22H125.367V220.28H120.627V226.86H118.447V212.06H125.647V214.1ZM130.314 226.86H128.114V212.06H130.314V226.86ZM140.487 214.32C139.82 213.987 138.927 213.82 137.807 213.82C136.073 213.82 135.207 214.46 135.207 215.74C135.207 216.353 135.747 217 136.827 217.68C137.72 218.253 138.42 218.707 138.927 219.04C139.433 219.373 139.74 219.593 139.847 219.7C140.927 220.647 141.467 221.74 141.467 222.98C141.467 224.367 140.933 225.453 139.867 226.24C138.96 226.907 137.873 227.24 136.607 227.24C135.34 227.24 134.18 227.007 133.127 226.54L133.387 224.32C134.387 224.88 135.487 225.16 136.687 225.16C138.46 225.16 139.347 224.38 139.347 222.82C139.347 222.207 138.807 221.54 137.727 220.82C136.753 220.167 136.013 219.667 135.507 219.32C135.013 218.973 134.747 218.787 134.707 218.76C133.64 217.84 133.107 216.833 133.107 215.74C133.107 214.5 133.587 213.507 134.547 212.76C135.413 212.093 136.507 211.76 137.827 211.76C138.92 211.76 139.927 211.933 140.847 212.28L140.487 214.32ZM155.005 226.5C154.258 226.913 153.092 227.12 151.505 227.12C149.225 227.12 147.405 226.427 146.045 225.04C144.698 223.627 144.025 221.767 144.025 219.46C144.025 217.18 144.712 215.333 146.085 213.92C147.458 212.507 149.265 211.8 151.505 211.8C153.132 211.8 154.298 211.98 155.005 212.34L154.845 214.38C153.938 214.02 152.825 213.84 151.505 213.84C149.892 213.84 148.605 214.36 147.645 215.4C146.685 216.44 146.205 217.793 146.205 219.46C146.205 221.193 146.672 222.553 147.605 223.54C148.552 224.567 149.852 225.08 151.505 225.08C152.905 225.08 154.018 224.86 154.845 224.42L155.005 226.5ZM167.096 221.06L164.676 214.9L162.236 221.06H167.096ZM171.736 226.94H169.416L167.896 223.12H161.416L159.876 226.94H157.576L163.656 212.02H165.836L171.736 226.94ZM175.998 226.86H173.798V212.06H175.998V226.86ZM186.17 214.32C185.503 213.987 184.61 213.82 183.49 213.82C181.757 213.82 180.89 214.46 180.89 215.74C180.89 216.353 181.43 217 182.51 217.68C183.403 218.253 184.103 218.707 184.61 219.04C185.117 219.373 185.423 219.593 185.53 219.7C186.61 220.647 187.15 221.74 187.15 222.98C187.15 224.367 186.617 225.453 185.55 226.24C184.643 226.907 183.557 227.24 182.29 227.24C181.023 227.24 179.863 227.007 178.81 226.54L179.07 224.32C180.07 224.88 181.17 225.16 182.37 225.16C184.143 225.16 185.03 224.38 185.03 222.82C185.03 222.207 184.49 221.54 183.41 220.82C182.437 220.167 181.697 219.667 181.19 219.32C180.697 218.973 180.43 218.787 180.39 218.76C179.323 217.84 178.79 216.833 178.79 215.74C178.79 214.5 179.27 213.507 180.23 212.76C181.097 212.093 182.19 211.76 183.51 211.76C184.603 211.76 185.61 211.933 186.53 212.28L186.17 214.32Z" fill="#1C3751"/>
</g>
<defs>
<filter id="filter0_d_7_22" x="0" y="0" width="277" height="277" filterUnits="userSpaceOnUse" color-interpolation-filters="sRGB">
<feFlood flood-opacity="0" result="BackgroundImageFix"/>
<feColorMatrix in="SourceAlpha" type="matrix" values="0 0 0 0 0 0 0 0 0 0 0 0 0 0 0 0 0 0 127 0" result="hardAlpha"/>
<feOffset dx="2" dy="4"/>
<feGaussianBlur stdDeviation="5"/>
<feComposite in2="hardAlpha" operator="out"/>
<feColorMatrix type="matrix" values="0 0 0 0 0 0 0 0 0 0 0 0 0 0 0 0 0 0 0.25 0"/>
<feBlend mode="normal" in2="BackgroundImageFix" result="effect1_dropShadow_7_22"/>
<feBlend mode="normal" in="SourceGraphic" in2="effect1_dropShadow_7_22" result="shape"/>
</filter>
<clipPath id="clip0_7_22">
<rect width="277" height="277" fill="white"/>
</clipPath>
</defs>
</svg>
