<svg width="277" height="277" viewBox="0 0 277 277" fill="none" xmlns="http://www.w3.org/2000/svg">
<g filter="url(#filter0_d_315_6)">
<rect x="8" y="6" width="257" height="257" rx="25" fill="#FAB84B"/>
</g>
<path d="M91.4323 194.38V202.12C90.0057 202.72 88.4457 203.02 86.7523 203.02C84.459 203.02 82.6323 202.313 81.2723 200.9C79.939 199.513 79.2723 197.667 79.2723 195.36C79.2723 193.053 79.959 191.207 81.3323 189.82C82.7057 188.407 84.519 187.7 86.7723 187.7C88.5057 187.7 89.8723 187.94 90.8723 188.42L90.6123 190.54C89.639 190.007 88.359 189.74 86.7723 189.74C85.1323 189.74 83.8323 190.267 82.8723 191.32C81.939 192.333 81.4723 193.68 81.4723 195.36C81.4723 197.053 81.9257 198.407 82.8323 199.42C83.7657 200.46 85.0723 200.98 86.7523 200.98C87.8323 200.98 88.6523 200.873 89.2123 200.66V196.42H86.1323V194.38H91.4323ZM102.995 202.84H95.3945V187.92H102.775V189.96H97.5745V194.12H102.495V196.16H97.5745V200.78H102.995V202.84ZM108.573 194.08H109.593C110.473 194.08 111.166 193.92 111.673 193.6C112.286 193.24 112.593 192.693 112.593 191.96C112.593 191.093 112.333 190.527 111.813 190.26C111.453 190.087 110.72 190 109.613 190H108.573V194.08ZM116.013 202.76H113.713L111.553 197.76C111.26 197.08 110.993 196.653 110.753 196.48C110.46 196.253 109.993 196.14 109.353 196.14H108.573V202.76H106.433V187.96H110.353C113.286 187.96 114.753 189.293 114.753 191.96C114.753 192.84 114.48 193.573 113.933 194.16C113.386 194.747 112.673 195.127 111.793 195.3C112.54 195.447 113.093 195.94 113.453 196.78L116.013 202.76ZM126.022 202.84H118.422V187.92H125.802V189.96H120.602V194.12H125.522V196.16H120.602V200.78H126.022V202.84ZM140.18 202.84H137.78L131.38 191.66V202.84H129.22V187.92H131.52L138.02 199.28V187.92H140.18V202.84ZM154.292 202.4C153.545 202.813 152.378 203.02 150.792 203.02C148.512 203.02 146.692 202.327 145.332 200.94C143.985 199.527 143.312 197.667 143.312 195.36C143.312 193.08 143.998 191.233 145.372 189.82C146.745 188.407 148.552 187.7 150.792 187.7C152.418 187.7 153.585 187.88 154.292 188.24L154.132 190.28C153.225 189.92 152.112 189.74 150.792 189.74C149.178 189.74 147.892 190.26 146.932 191.3C145.972 192.34 145.492 193.693 145.492 195.36C145.492 197.093 145.958 198.453 146.892 199.44C147.838 200.467 149.138 200.98 150.792 200.98C152.192 200.98 153.305 200.76 154.132 200.32L154.292 202.4ZM160.343 202.76H158.143V187.96H160.343V202.76ZM171.695 196.96L169.275 190.8L166.835 196.96H171.695ZM176.335 202.84H174.015L172.495 199.02H166.015L164.475 202.84H162.175L168.255 187.92H170.435L176.335 202.84ZM180.917 194.08H181.937C182.817 194.08 183.51 193.92 184.017 193.6C184.63 193.24 184.937 192.693 184.937 191.96C184.937 191.093 184.677 190.527 184.157 190.26C183.797 190.087 183.063 190 181.957 190H180.917V194.08ZM188.357 202.76H186.057L183.897 197.76C183.603 197.08 183.337 196.653 183.097 196.48C182.803 196.253 182.337 196.14 181.697 196.14H180.917V202.76H178.777V187.96H182.697C185.63 187.96 187.097 189.293 187.097 191.96C187.097 192.84 186.823 193.573 186.277 194.16C185.73 194.747 185.017 195.127 184.137 195.3C184.883 195.447 185.437 195.94 185.797 196.78L188.357 202.76ZM61.4302 224.4C60.6836 224.813 59.5169 225.02 57.9302 225.02C55.6502 225.02 53.8302 224.327 52.4702 222.94C51.1236 221.527 50.4502 219.667 50.4502 217.36C50.4502 215.08 51.1369 213.233 52.5102 211.82C53.8836 210.407 55.6902 209.7 57.9302 209.7C59.5569 209.7 60.7236 209.88 61.4302 210.24L61.2702 212.28C60.3636 211.92 59.2502 211.74 57.9302 211.74C56.3169 211.74 55.0302 212.26 54.0702 213.3C53.1102 214.34 52.6302 215.693 52.6302 217.36C52.6302 219.093 53.0969 220.453 54.0302 221.44C54.9769 222.467 56.2769 222.98 57.9302 222.98C59.3302 222.98 60.4436 222.76 61.2702 222.32L61.4302 224.4ZM71.5015 211.68C70.1148 211.68 69.0215 212.267 68.2215 213.44C67.4881 214.493 67.1215 215.8 67.1215 217.36C67.1215 218.933 67.4881 220.247 68.2215 221.3C69.0215 222.473 70.1148 223.06 71.5015 223.06C72.8881 223.06 73.9815 222.473 74.7815 221.3C75.5015 220.247 75.8615 218.933 75.8615 217.36C75.8615 215.813 75.5015 214.507 74.7815 213.44C73.9815 212.267 72.8881 211.68 71.5015 211.68ZM71.5015 209.66C73.6348 209.66 75.2948 210.453 76.4815 212.04C77.5348 213.453 78.0548 215.227 78.0415 217.36C78.0148 219.693 77.4681 221.533 76.4015 222.88C75.2415 224.347 73.6081 225.08 71.5015 225.08C69.4081 225.08 67.7681 224.347 66.5815 222.88C65.4881 221.507 64.9415 219.667 64.9415 217.36C64.9415 215.2 65.4615 213.42 66.5015 212.02C67.6748 210.447 69.3415 209.66 71.5015 209.66ZM88.6637 224.76H81.1437V209.96H83.3037V222.7H88.6637V224.76ZM98.9512 218.96L96.5312 212.8L94.0912 218.96H98.9512ZM103.591 224.84H101.271L99.7512 221.02H93.2712L91.7312 224.84H89.4312L95.5112 209.92H97.6912L103.591 224.84ZM107.993 222.7H108.993C111.286 222.7 112.433 221.94 112.433 220.42C112.433 219.447 112.039 218.787 111.253 218.44C110.733 218.213 109.906 218.1 108.773 218.1H107.993V222.7ZM108.033 216.04H109.133C111.053 216.04 112.013 215.32 112.013 213.88C112.013 212.627 111.166 212 109.473 212H108.033V216.04ZM105.853 209.96H109.473C112.579 209.96 114.133 211.213 114.133 213.72C114.133 215.387 113.319 216.473 111.693 216.98C112.573 217.233 113.266 217.66 113.773 218.26C114.306 218.873 114.573 219.6 114.573 220.44C114.573 223.32 112.699 224.76 108.953 224.76H105.853V209.96ZM124.001 211.68C122.615 211.68 121.521 212.267 120.721 213.44C119.988 214.493 119.621 215.8 119.621 217.36C119.621 218.933 119.988 220.247 120.721 221.3C121.521 222.473 122.615 223.06 124.001 223.06C125.388 223.06 126.481 222.473 127.281 221.3C128.001 220.247 128.361 218.933 128.361 217.36C128.361 215.813 128.001 214.507 127.281 213.44C126.481 212.267 125.388 211.68 124.001 211.68ZM124.001 209.66C126.135 209.66 127.795 210.453 128.981 212.04C130.035 213.453 130.555 215.227 130.541 217.36C130.515 219.693 129.968 221.533 128.901 222.88C127.741 224.347 126.108 225.08 124.001 225.08C121.908 225.08 120.268 224.347 119.081 222.88C117.988 221.507 117.441 219.667 117.441 217.36C117.441 215.2 117.961 213.42 119.001 212.02C120.175 210.447 121.841 209.66 124.001 209.66ZM136.044 216.08H137.064C137.944 216.08 138.637 215.92 139.144 215.6C139.757 215.24 140.064 214.693 140.064 213.96C140.064 213.093 139.804 212.527 139.284 212.26C138.924 212.087 138.19 212 137.084 212H136.044V216.08ZM143.484 224.76H141.184L139.024 219.76C138.73 219.08 138.464 218.653 138.224 218.48C137.93 218.253 137.464 218.14 136.824 218.14H136.044V224.76H133.904V209.96H137.824C140.757 209.96 142.224 211.293 142.224 213.96C142.224 214.84 141.95 215.573 141.404 216.16C140.857 216.747 140.144 217.127 139.264 217.3C140.01 217.447 140.564 217.94 140.924 218.78L143.484 224.76ZM153.893 218.96L151.473 212.8L149.033 218.96H153.893ZM158.533 224.84H156.213L154.693 221.02H148.213L146.673 224.84H144.373L150.453 209.92H152.633L158.533 224.84ZM162.974 222.7H163.694C167.747 222.7 169.774 220.887 169.774 217.26C169.774 213.753 168.041 212 164.574 212H162.974V222.7ZM160.794 209.96H164.574C167.081 209.96 168.967 210.653 170.234 212.04C171.367 213.293 171.934 215.053 171.934 217.32C171.934 219.88 171.121 221.793 169.494 223.06C168.067 224.193 166.087 224.76 163.554 224.76H160.794V209.96ZM181.345 211.68C179.959 211.68 178.865 212.267 178.065 213.44C177.332 214.493 176.965 215.8 176.965 217.36C176.965 218.933 177.332 220.247 178.065 221.3C178.865 222.473 179.959 223.06 181.345 223.06C182.732 223.06 183.825 222.473 184.625 221.3C185.345 220.247 185.705 218.933 185.705 217.36C185.705 215.813 185.345 214.507 184.625 213.44C183.825 212.267 182.732 211.68 181.345 211.68ZM181.345 209.66C183.479 209.66 185.139 210.453 186.325 212.04C187.379 213.453 187.899 215.227 187.885 217.36C187.859 219.693 187.312 221.533 186.245 222.88C185.085 224.347 183.452 225.08 181.345 225.08C179.252 225.08 177.612 224.347 176.425 222.88C175.332 221.507 174.785 219.667 174.785 217.36C174.785 215.2 175.305 213.42 176.345 212.02C177.519 210.447 179.185 209.66 181.345 209.66ZM193.387 216.08H194.407C195.287 216.08 195.981 215.92 196.487 215.6C197.101 215.24 197.407 214.693 197.407 213.96C197.407 213.093 197.147 212.527 196.627 212.26C196.267 212.087 195.534 212 194.427 212H193.387V216.08ZM200.827 224.76H198.527L196.367 219.76C196.074 219.08 195.807 218.653 195.567 218.48C195.274 218.253 194.807 218.14 194.167 218.14H193.387V224.76H191.247V209.96H195.167C198.101 209.96 199.567 211.293 199.567 213.96C199.567 214.84 199.294 215.573 198.747 216.16C198.201 216.747 197.487 217.127 196.607 217.3C197.354 217.447 197.907 217.94 198.267 218.78L200.827 224.76ZM210.836 224.84H203.236V209.92H210.616V211.96H205.416V216.12H210.336V218.16H205.416V222.78H210.836V224.84ZM220.955 212.22C220.288 211.887 219.395 211.72 218.275 211.72C216.541 211.72 215.675 212.36 215.675 213.64C215.675 214.253 216.215 214.9 217.295 215.58C218.188 216.153 218.888 216.607 219.395 216.94C219.901 217.273 220.208 217.493 220.315 217.6C221.395 218.547 221.935 219.64 221.935 220.88C221.935 222.267 221.401 223.353 220.335 224.14C219.428 224.807 218.341 225.14 217.075 225.14C215.808 225.14 214.648 224.907 213.595 224.44L213.855 222.22C214.855 222.78 215.955 223.06 217.155 223.06C218.928 223.06 219.815 222.28 219.815 220.72C219.815 220.107 219.275 219.44 218.195 218.72C217.221 218.067 216.481 217.567 215.975 217.22C215.481 216.873 215.215 216.687 215.175 216.66C214.108 215.74 213.575 214.733 213.575 213.64C213.575 212.4 214.055 211.407 215.015 210.66C215.881 209.993 216.975 209.66 218.295 209.66C219.388 209.66 220.395 209.833 221.315 210.18L220.955 212.22Z" fill="#1C3751"/>
<path d="M78.1964 82.375C78.1964 78.8277 79.6056 75.4257 82.1139 72.9174C84.6222 70.4091 88.0242 69 91.5714 69C95.1187 69 98.5207 70.4091 101.029 72.9174C103.537 75.4257 104.946 78.8277 104.946 82.375C104.946 85.9223 103.537 89.3243 101.029 91.8326C98.5207 94.3409 95.1187 95.75 91.5714 95.75C88.0242 95.75 84.6222 94.3409 82.1139 91.8326C79.6056 89.3243 78.1964 85.9223 78.1964 82.375ZM76.2857 120.04C73.8973 122.715 72.4643 126.274 72.4643 130.143C72.4643 134.012 73.8973 137.571 76.2857 140.246V120.04ZM110.774 108.265C103.681 114.547 99.2143 123.742 99.2143 133.964C99.2143 142.156 102.08 149.68 106.857 155.579V160.714C106.857 164.942 103.442 168.357 99.2143 168.357H83.9286C79.7011 168.357 76.2857 164.942 76.2857 160.714V154.313C67.2576 150.014 61 140.819 61 130.143C61 115.359 72.9658 103.393 87.75 103.393H95.3929C101.125 103.393 106.427 105.184 110.774 108.241V108.265ZM168 160.714V155.579C172.777 149.68 175.643 142.156 175.643 133.964C175.643 123.742 171.177 114.547 164.083 108.241C168.43 105.184 173.732 103.393 179.464 103.393H187.107C201.891 103.393 213.857 115.359 213.857 130.143C213.857 140.819 207.6 150.014 198.571 154.313V160.714C198.571 164.942 195.156 168.357 190.929 168.357H175.643C171.415 168.357 168 164.942 168 160.714ZM169.911 82.375C169.911 78.8277 171.32 75.4257 173.828 72.9174C176.336 70.4091 179.738 69 183.286 69C186.833 69 190.235 70.4091 192.743 72.9174C195.252 75.4257 196.661 78.8277 196.661 82.375C196.661 85.9223 195.252 89.3243 192.743 91.8326C190.235 94.3409 186.833 95.75 183.286 95.75C179.738 95.75 176.336 94.3409 173.828 91.8326C171.32 89.3243 169.911 85.9223 169.911 82.375ZM198.571 120.04V140.27C200.96 137.571 202.393 134.036 202.393 130.167C202.393 126.298 200.96 122.739 198.571 120.064V120.04ZM137.429 69C141.483 69 145.371 70.6105 148.237 73.4771C151.104 76.3437 152.714 80.2317 152.714 84.2857C152.714 88.3397 151.104 92.2277 148.237 95.0943C145.371 97.961 141.483 99.5714 137.429 99.5714C133.375 99.5714 129.487 97.961 126.62 95.0943C123.753 92.2277 122.143 88.3397 122.143 84.2857C122.143 80.2317 123.753 76.3437 126.62 73.4771C129.487 70.6105 133.375 69 137.429 69ZM118.321 133.964C118.321 137.833 119.754 141.368 122.143 144.067V123.861C119.754 126.56 118.321 130.095 118.321 133.964ZM152.714 123.861V144.091C155.103 141.392 156.536 137.857 156.536 133.988C156.536 130.119 155.103 126.56 152.714 123.885V123.861ZM168 133.964C168 144.64 161.742 153.836 152.714 158.135V168.357C152.714 172.585 149.299 176 145.071 176H129.786C125.558 176 122.143 172.585 122.143 168.357V158.135C113.115 153.836 106.857 144.64 106.857 133.964C106.857 119.18 118.823 107.214 133.607 107.214H141.25C156.034 107.214 168 119.18 168 133.964Z" fill="#1C3751"/>
<defs>
<filter id="filter0_d_315_6" x="0" y="0" width="277" height="277" filterUnits="userSpaceOnUse" color-interpolation-filters="sRGB">
<feFlood flood-opacity="0" result="BackgroundImageFix"/>
<feColorMatrix in="SourceAlpha" type="matrix" values="0 0 0 0 0 0 0 0 0 0 0 0 0 0 0 0 0 0 127 0" result="hardAlpha"/>
<feOffset dx="2" dy="4"/>
<feGaussianBlur stdDeviation="5"/>
<feComposite in2="hardAlpha" operator="out"/>
<feColorMatrix type="matrix" values="0 0 0 0 0 0 0 0 0 0 0 0 0 0 0 0 0 0 0.25 0"/>
<feBlend mode="normal" in2="BackgroundImageFix" result="effect1_dropShadow_315_6"/>
<feBlend mode="normal" in="SourceGraphic" in2="effect1_dropShadow_315_6" result="shape"/>
</filter>
</defs>
</svg>
