<svg width="320" height="320" viewBox="0 0 320 320" fill="none" xmlns="http://www.w3.org/2000/svg">
<g filter="url(#filter0_d_66_5)">
<rect x="8" y="6" width="300" height="300" rx="25" fill="#FAB84B"/>
</g>
<path d="M157.5 77C122.937 77 95 105.125 95 139.5C95 156.076 101.585 171.973 113.306 183.694C119.109 189.498 125.999 194.102 133.582 197.242C141.165 200.383 149.292 202 157.5 202C174.076 202 189.973 195.415 201.694 183.694C213.415 171.973 220 156.076 220 139.5C220 131.292 218.383 123.165 215.242 115.582C212.102 107.999 207.498 101.109 201.694 95.3058C195.891 89.5022 189.001 84.8984 181.418 81.7575C173.835 78.6166 165.708 77 157.5 77ZM180 116.625C186.688 116.625 192.063 122 192.063 128.688C192.063 135.375 186.688 140.75 180 140.75C176.801 140.75 173.733 139.479 171.471 137.217C169.208 134.955 167.938 131.887 167.938 128.688C167.875 122 173.312 116.625 180 116.625ZM142.5 106.75C150.625 106.75 157.25 113.375 157.25 121.5C157.25 129.625 150.625 136.375 142.5 136.375C134.375 136.375 127.75 129.625 127.75 121.5C127.75 113.312 134.313 106.75 142.5 106.75ZM142.5 163.812V187.25C127.5 182.562 115.625 171 110.375 156.25C116.875 149.25 133.313 145.75 142.5 145.75C145.813 145.75 150 146.188 154.375 147.062C144.125 152.5 142.5 159.688 142.5 163.812ZM157.5 189.5C155.75 189.5 154.125 189.5 152.5 189.25V163.812C152.5 154.938 170.875 150.5 180 150.5C186.688 150.5 198.125 152.938 204 157.688C196.688 176.25 178.625 189.5 157.5 189.5Z" fill="#1C3751"/>
<path d="M103.933 225.976V235.264C102.221 235.984 100.349 236.344 98.3168 236.344C95.5648 236.344 93.3728 235.496 91.7408 233.8C90.1408 232.136 89.3408 229.92 89.3408 227.152C89.3408 224.384 90.1648 222.168 91.8128 220.504C93.4608 218.808 95.6368 217.96 98.3408 217.96C100.421 217.96 102.061 218.248 103.261 218.824L102.949 221.368C101.781 220.728 100.245 220.408 98.3408 220.408C96.3728 220.408 94.8128 221.04 93.6608 222.304C92.5408 223.52 91.9808 225.136 91.9808 227.152C91.9808 229.184 92.5248 230.808 93.6128 232.024C94.7328 233.272 96.3008 233.896 98.3168 233.896C99.6128 233.896 100.597 233.768 101.269 233.512V228.424H97.5728V225.976H103.933ZM117.807 236.128H108.687V218.224H117.543V220.672H111.303V225.664H117.207V228.112H111.303V233.656H117.807V236.128ZM124.502 225.616H125.726C126.782 225.616 127.614 225.424 128.222 225.04C128.958 224.608 129.326 223.952 129.326 223.072C129.326 222.032 129.014 221.352 128.39 221.032C127.958 220.824 127.078 220.72 125.75 220.72H124.502V225.616ZM133.43 236.032H130.67L128.078 230.032C127.726 229.216 127.406 228.704 127.118 228.496C126.766 228.224 126.206 228.088 125.438 228.088H124.502V236.032H121.934V218.272H126.638C130.158 218.272 131.918 219.872 131.918 223.072C131.918 224.128 131.59 225.008 130.934 225.712C130.278 226.416 129.422 226.872 128.366 227.08C129.262 227.256 129.926 227.848 130.358 228.856L133.43 236.032ZM145.44 236.128H136.32V218.224H145.176V220.672H138.936V225.664H144.84V228.112H138.936V233.656H145.44V236.128ZM162.43 236.128H159.55L151.87 222.712V236.128H149.278V218.224H152.038L159.838 231.856V218.224H162.43V236.128ZM179.364 235.6C178.468 236.096 177.068 236.344 175.164 236.344C172.428 236.344 170.244 235.512 168.612 233.848C166.996 232.152 166.188 229.92 166.188 227.152C166.188 224.416 167.012 222.2 168.66 220.504C170.308 218.808 172.476 217.96 175.164 217.96C177.116 217.96 178.516 218.176 179.364 218.608L179.172 221.056C178.084 220.624 176.748 220.408 175.164 220.408C173.228 220.408 171.684 221.032 170.532 222.28C169.38 223.528 168.804 225.152 168.804 227.152C168.804 229.232 169.364 230.864 170.484 232.048C171.62 233.28 173.18 233.896 175.164 233.896C176.844 233.896 178.18 233.632 179.172 233.104L179.364 235.6ZM186.625 236.032H183.985V218.272H186.625V236.032ZM200.248 229.072L197.344 221.68L194.416 229.072H200.248ZM205.816 236.128H203.032L201.208 231.544H193.432L191.584 236.128H188.824L196.12 218.224H198.736L205.816 236.128ZM211.314 225.616H212.538C213.594 225.616 214.426 225.424 215.034 225.04C215.77 224.608 216.138 223.952 216.138 223.072C216.138 222.032 215.826 221.352 215.202 221.032C214.77 220.824 213.89 220.72 212.562 220.72H211.314V225.616ZM220.242 236.032H217.482L214.89 230.032C214.538 229.216 214.218 228.704 213.93 228.496C213.578 228.224 213.018 228.088 212.25 228.088H211.314V236.032H208.746V218.272H213.45C216.97 218.272 218.73 219.872 218.73 223.072C218.73 224.128 218.402 225.008 217.746 225.712C217.09 226.416 216.234 226.872 215.178 227.08C216.074 227.256 216.738 227.848 217.17 228.856L220.242 236.032ZM67.9302 261.6C67.0342 262.096 65.6342 262.344 63.7302 262.344C60.9942 262.344 58.8102 261.512 57.1782 259.848C55.5622 258.152 54.7542 255.92 54.7542 253.152C54.7542 250.416 55.5782 248.2 57.2262 246.504C58.8742 244.808 61.0422 243.96 63.7302 243.96C65.6822 243.96 67.0822 244.176 67.9302 244.608L67.7382 247.056C66.6502 246.624 65.3142 246.408 63.7302 246.408C61.7942 246.408 60.2502 247.032 59.0982 248.28C57.9462 249.528 57.3702 251.152 57.3702 253.152C57.3702 255.232 57.9302 256.864 59.0502 258.048C60.1862 259.28 61.7462 259.896 63.7302 259.896C65.4102 259.896 66.7462 259.632 67.7382 259.104L67.9302 261.6ZM80.0157 246.336C78.3517 246.336 77.0397 247.04 76.0797 248.448C75.1997 249.712 74.7597 251.28 74.7597 253.152C74.7597 255.04 75.1997 256.616 76.0797 257.88C77.0397 259.288 78.3517 259.992 80.0157 259.992C81.6797 259.992 82.9917 259.288 83.9517 257.88C84.8157 256.616 85.2477 255.04 85.2477 253.152C85.2477 251.296 84.8157 249.728 83.9517 248.448C82.9917 247.04 81.6797 246.336 80.0157 246.336ZM80.0157 243.912C82.5757 243.912 84.5677 244.864 85.9917 246.768C87.2557 248.464 87.8797 250.592 87.8637 253.152C87.8317 255.952 87.1757 258.16 85.8957 259.776C84.5037 261.536 82.5437 262.416 80.0157 262.416C77.5037 262.416 75.5357 261.536 74.1117 259.776C72.7997 258.128 72.1437 255.92 72.1437 253.152C72.1437 250.56 72.7677 248.424 74.0157 246.744C75.4237 244.856 77.4237 243.912 80.0157 243.912ZM100.61 262.032H91.5863V244.272H94.1783V259.56H100.61V262.032ZM112.955 255.072L110.051 247.68L107.123 255.072H112.955ZM118.523 262.128H115.739L113.915 257.544H106.139L104.291 262.128H101.531L108.827 244.224H111.443L118.523 262.128ZM123.805 259.56H125.005C127.757 259.56 129.133 258.648 129.133 256.824C129.133 255.656 128.661 254.864 127.717 254.448C127.093 254.176 126.101 254.04 124.741 254.04H123.805V259.56ZM123.853 251.568H125.173C127.477 251.568 128.629 250.704 128.629 248.976C128.629 247.472 127.613 246.72 125.581 246.72H123.853V251.568ZM121.237 244.272H125.581C129.309 244.272 131.173 245.776 131.173 248.784C131.173 250.784 130.197 252.088 128.245 252.696C129.301 253 130.133 253.512 130.741 254.232C131.381 254.968 131.701 255.84 131.701 256.848C131.701 260.304 129.453 262.032 124.957 262.032H121.237V244.272ZM143.016 246.336C141.352 246.336 140.04 247.04 139.08 248.448C138.2 249.712 137.76 251.28 137.76 253.152C137.76 255.04 138.2 256.616 139.08 257.88C140.04 259.288 141.352 259.992 143.016 259.992C144.68 259.992 145.992 259.288 146.952 257.88C147.816 256.616 148.248 255.04 148.248 253.152C148.248 251.296 147.816 249.728 146.952 248.448C145.992 247.04 144.68 246.336 143.016 246.336ZM143.016 243.912C145.576 243.912 147.568 244.864 148.992 246.768C150.256 248.464 150.88 250.592 150.864 253.152C150.832 255.952 150.176 258.16 148.896 259.776C147.504 261.536 145.544 262.416 143.016 262.416C140.504 262.416 138.536 261.536 137.112 259.776C135.8 258.128 135.144 255.92 135.144 253.152C135.144 250.56 135.768 248.424 137.016 246.744C138.424 244.856 140.424 243.912 143.016 243.912ZM157.466 251.616H158.69C159.746 251.616 160.578 251.424 161.186 251.04C161.922 250.608 162.29 249.952 162.29 249.072C162.29 248.032 161.978 247.352 161.354 247.032C160.922 246.824 160.042 246.72 158.714 246.72H157.466V251.616ZM166.394 262.032H163.634L161.042 256.032C160.69 255.216 160.37 254.704 160.082 254.496C159.73 254.224 159.17 254.088 158.402 254.088H157.466V262.032H154.898V244.272H159.602C163.122 244.272 164.882 245.872 164.882 249.072C164.882 250.128 164.554 251.008 163.898 251.712C163.242 252.416 162.386 252.872 161.33 253.08C162.226 253.256 162.89 253.848 163.322 254.856L166.394 262.032ZM178.885 255.072L175.981 247.68L173.053 255.072H178.885ZM184.453 262.128H181.669L179.845 257.544H172.069L170.221 262.128H167.461L174.757 244.224H177.373L184.453 262.128ZM189.783 259.56H190.647C195.511 259.56 197.943 257.384 197.943 253.032C197.943 248.824 195.863 246.72 191.703 246.72H189.783V259.56ZM187.167 244.272H191.703C194.711 244.272 196.975 245.104 198.495 246.768C199.855 248.272 200.535 250.384 200.535 253.104C200.535 256.176 199.559 258.472 197.607 259.992C195.895 261.352 193.519 262.032 190.479 262.032H187.167V244.272ZM211.828 246.336C210.164 246.336 208.852 247.04 207.892 248.448C207.012 249.712 206.572 251.28 206.572 253.152C206.572 255.04 207.012 256.616 207.892 257.88C208.852 259.288 210.164 259.992 211.828 259.992C213.492 259.992 214.804 259.288 215.764 257.88C216.628 256.616 217.06 255.04 217.06 253.152C217.06 251.296 216.628 249.728 215.764 248.448C214.804 247.04 213.492 246.336 211.828 246.336ZM211.828 243.912C214.388 243.912 216.38 244.864 217.804 246.768C219.068 248.464 219.692 250.592 219.676 253.152C219.644 255.952 218.988 258.16 217.708 259.776C216.316 261.536 214.356 262.416 211.828 262.416C209.316 262.416 207.348 261.536 205.924 259.776C204.612 258.128 203.956 255.92 203.956 253.152C203.956 250.56 204.58 248.424 205.828 246.744C207.236 244.856 209.236 243.912 211.828 243.912ZM226.279 251.616H227.503C228.559 251.616 229.391 251.424 229.999 251.04C230.735 250.608 231.103 249.952 231.103 249.072C231.103 248.032 230.791 247.352 230.167 247.032C229.735 246.824 228.855 246.72 227.527 246.72H226.279V251.616ZM235.207 262.032H232.447L229.855 256.032C229.503 255.216 229.183 254.704 228.895 254.496C228.543 254.224 227.983 254.088 227.215 254.088H226.279V262.032H223.711V244.272H228.415C231.935 244.272 233.695 245.872 233.695 249.072C233.695 250.128 233.367 251.008 232.711 251.712C232.055 252.416 231.199 252.872 230.143 253.08C231.039 253.256 231.703 253.848 232.135 254.856L235.207 262.032ZM247.218 262.128H238.098V244.224H246.954V246.672H240.714V251.664H246.618V254.112H240.714V259.656H247.218V262.128ZM259.36 246.984C258.56 246.584 257.488 246.384 256.144 246.384C254.064 246.384 253.024 247.152 253.024 248.688C253.024 249.424 253.672 250.2 254.968 251.016C256.04 251.704 256.88 252.248 257.488 252.648C258.096 253.048 258.464 253.312 258.592 253.44C259.888 254.576 260.536 255.888 260.536 257.376C260.536 259.04 259.896 260.344 258.616 261.288C257.528 262.088 256.224 262.488 254.704 262.488C253.184 262.488 251.792 262.208 250.528 261.648L250.84 258.984C252.04 259.656 253.36 259.992 254.8 259.992C256.928 259.992 257.992 259.056 257.992 257.184C257.992 256.448 257.344 255.648 256.048 254.784C254.88 254 253.992 253.4 253.384 252.984C252.792 252.568 252.472 252.344 252.424 252.312C251.144 251.208 250.504 250 250.504 248.688C250.504 247.2 251.08 246.008 252.232 245.112C253.272 244.312 254.584 243.912 256.168 243.912C257.48 243.912 258.688 244.12 259.792 244.536L259.36 246.984Z" fill="#1C3751"/>
<defs>
<filter id="filter0_d_66_5" x="0" y="0" width="320" height="320" filterUnits="userSpaceOnUse" color-interpolation-filters="sRGB">
<feFlood flood-opacity="0" result="BackgroundImageFix"/>
<feColorMatrix in="SourceAlpha" type="matrix" values="0 0 0 0 0 0 0 0 0 0 0 0 0 0 0 0 0 0 127 0" result="hardAlpha"/>
<feOffset dx="2" dy="4"/>
<feGaussianBlur stdDeviation="5"/>
<feComposite in2="hardAlpha" operator="out"/>
<feColorMatrix type="matrix" values="0 0 0 0 0 0 0 0 0 0 0 0 0 0 0 0 0 0 0.25 0"/>
<feBlend mode="normal" in2="BackgroundImageFix" result="effect1_dropShadow_66_5"/>
<feBlend mode="normal" in="SourceGraphic" in2="effect1_dropShadow_66_5" result="shape"/>
</filter>
</defs>
</svg>
