<svg width="277" height="277" viewBox="0 0 277 277" fill="none" xmlns="http://www.w3.org/2000/svg">
<g filter="url(#filter0_d_315_20)">
<rect x="8" y="6" width="257" height="257" rx="25" fill="#FAB84B"/>
</g>
<path d="M65.0052 188.48V196.22C63.5785 196.82 62.0185 197.12 60.3252 197.12C58.0318 197.12 56.2052 196.413 54.8452 195C53.5118 193.613 52.8452 191.767 52.8452 189.46C52.8452 187.153 53.5318 185.307 54.9052 183.92C56.2785 182.507 58.0918 181.8 60.3452 181.8C62.0785 181.8 63.4452 182.04 64.4452 182.52L64.1852 184.64C63.2118 184.107 61.9318 183.84 60.3452 183.84C58.7052 183.84 57.4052 184.367 56.4452 185.42C55.5118 186.433 55.0452 187.78 55.0452 189.46C55.0452 191.153 55.4985 192.507 56.4052 193.52C57.3385 194.56 58.6452 195.08 60.3252 195.08C61.4052 195.08 62.2252 194.973 62.7852 194.76V190.52H59.7052V188.48H65.0052ZM76.5673 196.94H68.9673V182.02H76.3473V184.06H71.1473V188.22H76.0673V190.26H71.1473V194.88H76.5673V196.94ZM82.1458 188.18H83.1658C84.0458 188.18 84.7391 188.02 85.2458 187.7C85.8591 187.34 86.1658 186.793 86.1658 186.06C86.1658 185.193 85.9058 184.627 85.3858 184.36C85.0258 184.187 84.2924 184.1 83.1858 184.1H82.1458V188.18ZM89.5858 196.86H87.2858L85.1258 191.86C84.8324 191.18 84.5658 190.753 84.3258 190.58C84.0324 190.353 83.5658 190.24 82.9258 190.24H82.1458V196.86H80.0058V182.06H83.9258C86.8591 182.06 88.3258 183.393 88.3258 186.06C88.3258 186.94 88.0524 187.673 87.5058 188.26C86.9591 188.847 86.2458 189.227 85.3658 189.4C86.1124 189.547 86.6658 190.04 87.0258 190.88L89.5858 196.86ZM99.5947 196.94H91.9947V182.02H99.3747V184.06H94.1747V188.22H99.0947V190.26H94.1747V194.88H99.5947V196.94ZM113.753 196.94H111.353L104.953 185.76V196.94H102.793V182.02H105.093L111.593 193.38V182.02H113.753V196.94ZM127.864 196.5C127.118 196.913 125.951 197.12 124.364 197.12C122.084 197.12 120.264 196.427 118.904 195.04C117.558 193.627 116.884 191.767 116.884 189.46C116.884 187.18 117.571 185.333 118.944 183.92C120.318 182.507 122.124 181.8 124.364 181.8C125.991 181.8 127.158 181.98 127.864 182.34L127.704 184.38C126.798 184.02 125.684 183.84 124.364 183.84C122.751 183.84 121.464 184.36 120.504 185.4C119.544 186.44 119.064 187.793 119.064 189.46C119.064 191.193 119.531 192.553 120.464 193.54C121.411 194.567 122.711 195.08 124.364 195.08C125.764 195.08 126.878 194.86 127.704 194.42L127.864 196.5ZM133.916 196.86H131.716V182.06H133.916V196.86ZM145.268 191.06L142.848 184.9L140.408 191.06H145.268ZM149.908 196.94H147.588L146.068 193.12H139.588L138.048 196.94H135.748L141.828 182.02H144.008L149.908 196.94ZM167.53 196.94H165.39V185.4L160.85 196.84H159.09L154.39 185.4V196.94H152.23V182.02H155.11L159.95 193.88L164.65 182.02H167.53V196.94ZM179.185 196.94H171.585V182.02H178.965V184.06H173.765V188.22H178.685V190.26H173.765V194.88H179.185V196.94ZM193.343 196.94H190.943L184.543 185.76V196.94H182.383V182.02H184.683L191.183 193.38V182.02H193.343V196.94ZM205.774 184.04H201.714V196.86H199.534V184.04H195.494V182.06H205.774V184.04ZM213.893 183.78C212.506 183.78 211.413 184.367 210.613 185.54C209.879 186.593 209.513 187.9 209.513 189.46C209.513 191.033 209.879 192.347 210.613 193.4C211.413 194.573 212.506 195.16 213.893 195.16C215.279 195.16 216.373 194.573 217.173 193.4C217.893 192.347 218.253 191.033 218.253 189.46C218.253 187.913 217.893 186.607 217.173 185.54C216.373 184.367 215.279 183.78 213.893 183.78ZM213.893 181.76C216.026 181.76 217.686 182.553 218.873 184.14C219.926 185.553 220.446 187.327 220.433 189.46C220.406 191.793 219.859 193.633 218.793 194.98C217.633 196.447 215.999 197.18 213.893 197.18C211.799 197.18 210.159 196.447 208.973 194.98C207.879 193.607 207.333 191.767 207.333 189.46C207.333 187.3 207.853 185.52 208.893 184.12C210.066 182.547 211.733 181.76 213.893 181.76ZM83.8808 216.8H84.6008C88.6541 216.8 90.6808 214.987 90.6808 211.36C90.6808 207.853 88.9474 206.1 85.4808 206.1H83.8808V216.8ZM81.7008 204.06H85.4808C87.9874 204.06 89.8741 204.753 91.1408 206.14C92.2741 207.393 92.8408 209.153 92.8408 211.42C92.8408 213.98 92.0274 215.893 90.4008 217.16C88.9741 218.293 86.9941 218.86 84.4608 218.86H81.7008V204.06ZM103.872 218.94H96.272V204.02H103.652V206.06H98.452V210.22H103.372V212.26H98.452V216.88H103.872V218.94ZM119.596 206.32C118.929 205.987 118.036 205.82 116.916 205.82C115.183 205.82 114.316 206.46 114.316 207.74C114.316 208.353 114.856 209 115.936 209.68C116.829 210.253 117.529 210.707 118.036 211.04C118.543 211.373 118.849 211.593 118.956 211.7C120.036 212.647 120.576 213.74 120.576 214.98C120.576 216.367 120.043 217.453 118.976 218.24C118.069 218.907 116.983 219.24 115.716 219.24C114.449 219.24 113.289 219.007 112.236 218.54L112.496 216.32C113.496 216.88 114.596 217.16 115.796 217.16C117.569 217.16 118.456 216.38 118.456 214.82C118.456 214.207 117.916 213.54 116.836 212.82C115.863 212.167 115.123 211.667 114.616 211.32C114.123 210.973 113.856 210.787 113.816 210.76C112.749 209.84 112.216 208.833 112.216 207.74C112.216 206.5 112.696 205.507 113.656 204.76C114.523 204.093 115.616 203.76 116.936 203.76C118.029 203.76 119.036 203.933 119.956 204.28L119.596 206.32ZM131.274 218.94H123.674V204.02H131.054V206.06H125.854V210.22H130.774V212.26H125.854V216.88H131.274V218.94ZM143.333 206.04H139.273V218.86H137.093V206.04H133.053V204.06H143.333V206.04ZM151.451 205.78C150.065 205.78 148.971 206.367 148.171 207.54C147.438 208.593 147.071 209.9 147.071 211.46C147.071 213.033 147.438 214.347 148.171 215.4C148.971 216.573 150.065 217.16 151.451 217.16C152.838 217.16 153.931 216.573 154.731 215.4C155.451 214.347 155.811 213.033 155.811 211.46C155.811 209.913 155.451 208.607 154.731 207.54C153.931 206.367 152.838 205.78 151.451 205.78ZM151.451 203.76C153.585 203.76 155.245 204.553 156.431 206.14C157.485 207.553 158.005 209.327 157.991 211.46C157.965 213.793 157.418 215.633 156.351 216.98C155.191 218.447 153.558 219.18 151.451 219.18C149.358 219.18 147.718 218.447 146.531 216.98C145.438 215.607 144.891 213.767 144.891 211.46C144.891 209.3 145.411 207.52 146.451 206.12C147.625 204.547 149.291 203.76 151.451 203.76ZM163.493 210.18H164.513C165.393 210.18 166.087 210.02 166.593 209.7C167.207 209.34 167.513 208.793 167.513 208.06C167.513 207.193 167.253 206.627 166.733 206.36C166.373 206.187 165.64 206.1 164.533 206.1H163.493V210.18ZM170.933 218.86H168.633L166.473 213.86C166.18 213.18 165.913 212.753 165.673 212.58C165.38 212.353 164.913 212.24 164.273 212.24H163.493V218.86H161.353V204.06H165.273C168.207 204.06 169.673 205.393 169.673 208.06C169.673 208.94 169.4 209.673 168.853 210.26C168.307 210.847 167.593 211.227 166.713 211.4C167.46 211.547 168.013 212.04 168.373 212.88L170.933 218.86ZM180.942 218.94H173.342V204.02H180.722V206.06H175.522V210.22H180.442V212.26H175.522V216.88H180.942V218.94ZM191.061 206.32C190.394 205.987 189.501 205.82 188.381 205.82C186.647 205.82 185.781 206.46 185.781 207.74C185.781 208.353 186.321 209 187.401 209.68C188.294 210.253 188.994 210.707 189.501 211.04C190.007 211.373 190.314 211.593 190.421 211.7C191.501 212.647 192.041 213.74 192.041 214.98C192.041 216.367 191.507 217.453 190.441 218.24C189.534 218.907 188.447 219.24 187.181 219.24C185.914 219.24 184.754 219.007 183.701 218.54L183.961 216.32C184.961 216.88 186.061 217.16 187.261 217.16C189.034 217.16 189.921 216.38 189.921 214.82C189.921 214.207 189.381 213.54 188.301 212.82C187.327 212.167 186.587 211.667 186.081 211.32C185.587 210.973 185.321 210.787 185.281 210.76C184.214 209.84 183.681 208.833 183.681 207.74C183.681 206.5 184.161 205.507 185.121 204.76C185.987 204.093 187.081 203.76 188.401 203.76C189.494 203.76 190.501 203.933 191.421 204.28L191.061 206.32Z" fill="#1C3751"/>
<path d="M187.313 66.3436C187.313 65.7734 187.167 65.2127 186.889 64.7147C186.611 64.2168 186.211 63.7981 185.725 63.4986C185.24 63.199 184.687 63.0285 184.117 63.0033C183.547 62.978 182.981 63.0989 182.471 63.3543L128.971 90.1044C128.416 90.3823 127.95 90.8091 127.624 91.3371C127.298 91.865 127.125 92.4732 127.125 93.0937V114.092L89.2871 126.705C88.6216 126.927 88.0426 127.352 87.6321 127.921C87.2217 128.49 87.0005 129.173 87 129.875V166.656C87 167.543 87.3523 168.394 87.9794 169.021C88.6064 169.648 89.4569 170 90.3438 170H150.531C151.418 170 152.269 169.648 152.896 169.021C153.523 168.394 153.875 167.543 153.875 166.656V156.625H160.563V166.656C160.563 167.543 160.915 168.394 161.542 169.021C162.169 169.648 163.02 170 163.906 170H183.969C184.856 170 185.706 169.648 186.333 169.021C186.96 168.394 187.313 167.543 187.313 166.656V66.3436ZM100.375 136.562H107.063V143.25H100.375V136.562ZM113.75 136.562H120.438V143.25H113.75V136.562ZM107.063 149.937V156.625H100.375V149.937H107.063ZM113.75 149.937H120.438V156.625H113.75V149.937ZM173.938 83.0624V89.7499H167.25V83.0624H173.938ZM140.5 96.4374H147.188V103.125H140.5V96.4374ZM147.188 109.812V116.5H140.5V109.812H147.188ZM140.5 123.187H147.188V129.875H140.5V123.187ZM153.875 123.187H160.563V129.875H153.875V123.187ZM147.188 136.562V143.25H140.5V136.562H147.188ZM153.875 136.562H160.563V143.25H153.875V136.562ZM173.938 123.187V129.875H167.25V123.187H173.938ZM167.25 136.562H173.938V143.25H167.25V136.562ZM153.875 109.812H160.563V116.5H153.875V109.812ZM173.938 109.812V116.5H167.25V109.812H173.938ZM160.563 96.4374V103.125H153.875V96.4374H160.563ZM167.25 96.4374H173.938V103.125H167.25V96.4374Z" fill="#1C3751"/>
<defs>
<filter id="filter0_d_315_20" x="0" y="0" width="277" height="277" filterUnits="userSpaceOnUse" color-interpolation-filters="sRGB">
<feFlood flood-opacity="0" result="BackgroundImageFix"/>
<feColorMatrix in="SourceAlpha" type="matrix" values="0 0 0 0 0 0 0 0 0 0 0 0 0 0 0 0 0 0 127 0" result="hardAlpha"/>
<feOffset dx="2" dy="4"/>
<feGaussianBlur stdDeviation="5"/>
<feComposite in2="hardAlpha" operator="out"/>
<feColorMatrix type="matrix" values="0 0 0 0 0 0 0 0 0 0 0 0 0 0 0 0 0 0 0.25 0"/>
<feBlend mode="normal" in2="BackgroundImageFix" result="effect1_dropShadow_315_20"/>
<feBlend mode="normal" in="SourceGraphic" in2="effect1_dropShadow_315_20" result="shape"/>
</filter>
</defs>
</svg>
