<svg width="278" height="277" viewBox="0 0 278 277" fill="none" xmlns="http://www.w3.org/2000/svg">
<g clip-path="url(#clip0_7_45)">
<g filter="url(#filter0_d_7_45)">
<path d="M241 6H33C19.1929 6 8 17.1929 8 31V238C8 251.807 19.1929 263 33 263H241C254.807 263 266 251.807 266 238V31C266 17.1929 254.807 6 241 6Z" fill="#FAB84B"/>
</g>
<path d="M80.22 207.18H81.24C82.12 207.18 82.8133 207.02 83.32 206.7C83.9333 206.34 84.24 205.793 84.24 205.06C84.24 204.193 83.98 203.627 83.46 203.36C83.1 203.187 82.3667 203.1 81.26 203.1H80.22V207.18ZM87.66 215.86H85.36L83.2 210.86C82.9067 210.18 82.64 209.753 82.4 209.58C82.1067 209.353 81.64 209.24 81 209.24H80.22V215.86H78.08V201.06H82C84.9333 201.06 86.4 202.393 86.4 205.06C86.4 205.94 86.1267 206.673 85.58 207.26C85.0333 207.847 84.32 208.227 83.44 208.4C84.1867 208.547 84.74 209.04 85.1 209.88L87.66 215.86ZM97.6689 215.94H90.0689V201.02H97.4489V203.06H92.2489V207.22H97.1689V209.26H92.2489V213.88H97.6689V215.94ZM108.367 215.86H100.847V201.06H103.007V213.8H108.367V215.86ZM118.655 210.06L116.235 203.9L113.795 210.06H118.655ZM123.295 215.94H120.975L119.455 212.12H112.975L111.435 215.94H109.135L115.215 201.02H117.395L123.295 215.94ZM134.356 203.04H130.296V215.86H128.116V203.04H124.076V201.06H134.356V203.04ZM148.955 207.84C148.955 208.947 148.815 209.953 148.535 210.86C148.255 211.753 147.835 212.527 147.275 213.18C146.728 213.833 146.041 214.333 145.215 214.68C144.401 215.027 143.455 215.2 142.375 215.2C141.255 215.2 140.281 215.027 139.455 214.68C138.628 214.32 137.941 213.82 137.395 213.18C136.848 212.527 136.441 211.747 136.175 210.84C135.908 209.933 135.775 208.927 135.775 207.82C135.775 206.353 136.015 205.073 136.495 203.98C136.975 202.887 137.701 202.033 138.675 201.42C139.661 200.807 140.901 200.5 142.395 200.5C143.821 200.5 145.021 200.807 145.995 201.42C146.968 202.02 147.701 202.873 148.195 203.98C148.701 205.073 148.955 206.36 148.955 207.84ZM137.675 207.84C137.675 209.04 137.841 210.073 138.175 210.94C138.508 211.807 139.021 212.473 139.715 212.94C140.421 213.407 141.308 213.64 142.375 213.64C143.455 213.64 144.335 213.407 145.015 212.94C145.708 212.473 146.221 211.807 146.555 210.94C146.888 210.073 147.055 209.04 147.055 207.84C147.055 206.04 146.681 204.633 145.935 203.62C145.188 202.593 144.008 202.08 142.395 202.08C141.315 202.08 140.421 202.313 139.715 202.78C139.021 203.233 138.508 203.893 138.175 204.76C137.841 205.613 137.675 206.64 137.675 207.84ZM145.335 196.32C145.215 196.507 145.041 196.733 144.815 197C144.588 197.267 144.335 197.547 144.055 197.84C143.788 198.12 143.515 198.393 143.235 198.66C142.968 198.913 142.715 199.133 142.475 199.32H141.315V199.08C141.515 198.827 141.728 198.527 141.955 198.18C142.195 197.833 142.428 197.48 142.655 197.12C142.881 196.747 143.068 196.413 143.215 196.12H145.335V196.32ZM154.4 207.18H155.42C156.3 207.18 156.993 207.02 157.5 206.7C158.113 206.34 158.42 205.793 158.42 205.06C158.42 204.193 158.16 203.627 157.64 203.36C157.28 203.187 156.546 203.1 155.44 203.1H154.4V207.18ZM161.84 215.86H159.54L157.38 210.86C157.086 210.18 156.82 209.753 156.58 209.58C156.286 209.353 155.82 209.24 155.18 209.24H154.4V215.86H152.26V201.06H156.18C159.113 201.06 160.58 202.393 160.58 205.06C160.58 205.94 160.306 206.673 159.76 207.26C159.213 207.847 158.5 208.227 157.62 208.4C158.366 208.547 158.92 209.04 159.28 209.88L161.84 215.86ZM166.209 215.86H164.009V201.06H166.209V215.86ZM175.541 202.78C174.154 202.78 173.061 203.367 172.261 204.54C171.528 205.593 171.161 206.9 171.161 208.46C171.161 210.033 171.528 211.347 172.261 212.4C173.061 213.573 174.154 214.16 175.541 214.16C176.928 214.16 178.021 213.573 178.821 212.4C179.541 211.347 179.901 210.033 179.901 208.46C179.901 206.913 179.541 205.607 178.821 204.54C178.021 203.367 176.928 202.78 175.541 202.78ZM175.541 200.76C177.674 200.76 179.334 201.553 180.521 203.14C181.574 204.553 182.094 206.327 182.081 208.46C182.054 210.793 181.508 212.633 180.441 213.98C179.281 215.447 177.648 216.18 175.541 216.18C173.448 216.18 171.808 215.447 170.621 213.98C169.528 212.607 168.981 210.767 168.981 208.46C168.981 206.3 169.501 204.52 170.541 203.12C171.714 201.547 173.381 200.76 175.541 200.76ZM192.123 203.32C191.457 202.987 190.563 202.82 189.443 202.82C187.71 202.82 186.843 203.46 186.843 204.74C186.843 205.353 187.383 206 188.463 206.68C189.357 207.253 190.057 207.707 190.563 208.04C191.07 208.373 191.377 208.593 191.483 208.7C192.563 209.647 193.103 210.74 193.103 211.98C193.103 213.367 192.57 214.453 191.503 215.24C190.597 215.907 189.51 216.24 188.243 216.24C186.977 216.24 185.817 216.007 184.763 215.54L185.023 213.32C186.023 213.88 187.123 214.16 188.323 214.16C190.097 214.16 190.983 213.38 190.983 211.82C190.983 211.207 190.443 210.54 189.363 209.82C188.39 209.167 187.65 208.667 187.143 208.32C186.65 207.973 186.383 207.787 186.343 207.76C185.277 206.84 184.743 205.833 184.743 204.74C184.743 203.5 185.223 202.507 186.183 201.76C187.05 201.093 188.143 200.76 189.463 200.76C190.557 200.76 191.563 200.933 192.483 201.28L192.123 203.32Z" fill="#1C3751"/>
<mask id="mask0_7_45" style="mask-type:luminance" maskUnits="userSpaceOnUse" x="73" y="67" width="129" height="129">
<path d="M189.583 69H85.4167C82.654 69 80.0045 70.0975 78.051 72.051C76.0975 74.0045 75 76.654 75 79.4167V183.583C75 186.346 76.0975 188.996 78.051 190.949C80.0045 192.903 82.654 194 85.4167 194H189.583C192.346 194 194.996 192.903 196.949 190.949C198.903 188.996 200 186.346 200 183.583V79.4167C200 76.654 198.903 74.0045 196.949 72.051C194.996 70.0975 192.346 69 189.583 69Z" fill="white" stroke="white" stroke-width="4" stroke-linecap="round" stroke-linejoin="round"/>
<path d="M127.083 155.806L144.444 169.694L172.222 134.972M102.778 100.25H172.222M102.778 128.028H130.556" stroke="black" stroke-width="4" stroke-linecap="round" stroke-linejoin="round"/>
</mask>
<g mask="url(#mask0_7_45)">
<path d="M57 51H200V194H57V51Z" fill="#1C3751"/>
</g>
</g>
<defs>
<filter id="filter0_d_7_45" x="0" y="0" width="278" height="277" filterUnits="userSpaceOnUse" color-interpolation-filters="sRGB">
<feFlood flood-opacity="0" result="BackgroundImageFix"/>
<feColorMatrix in="SourceAlpha" type="matrix" values="0 0 0 0 0 0 0 0 0 0 0 0 0 0 0 0 0 0 127 0" result="hardAlpha"/>
<feOffset dx="2" dy="4"/>
<feGaussianBlur stdDeviation="5"/>
<feComposite in2="hardAlpha" operator="out"/>
<feColorMatrix type="matrix" values="0 0 0 0 0 0 0 0 0 0 0 0 0 0 0 0 0 0 0.25 0"/>
<feBlend mode="normal" in2="BackgroundImageFix" result="effect1_dropShadow_7_45"/>
<feBlend mode="normal" in="SourceGraphic" in2="effect1_dropShadow_7_45" result="shape"/>
</filter>
<clipPath id="clip0_7_45">
<rect width="278" height="277" fill="white"/>
</clipPath>
</defs>
</svg>
