<svg width="320" height="320" viewBox="0 0 320 320" fill="none" xmlns="http://www.w3.org/2000/svg">
<g filter="url(#filter0_d_486_52)">
<rect x="8" y="6" width="300" height="300" rx="25" fill="#FAB84B"/>
</g>
<path d="M78.9534 220.984C78.1534 220.584 77.0814 220.384 75.7374 220.384C73.6574 220.384 72.6174 221.152 72.6174 222.688C72.6174 223.424 73.2654 224.2 74.5614 225.016C75.6334 225.704 76.4734 226.248 77.0814 226.648C77.6894 227.048 78.0574 227.312 78.1854 227.44C79.4814 228.576 80.1294 229.888 80.1294 231.376C80.1294 233.04 79.4894 234.344 78.2094 235.288C77.1214 236.088 75.8174 236.488 74.2974 236.488C72.7774 236.488 71.3854 236.208 70.1214 235.648L70.4334 232.984C71.6334 233.656 72.9534 233.992 74.3934 233.992C76.5214 233.992 77.5854 233.056 77.5854 231.184C77.5854 230.448 76.9374 229.648 75.6414 228.784C74.4734 228 73.5854 227.4 72.9774 226.984C72.3854 226.568 72.0654 226.344 72.0174 226.312C70.7374 225.208 70.0974 224 70.0974 222.688C70.0974 221.2 70.6734 220.008 71.8254 219.112C72.8654 218.312 74.1774 217.912 75.7614 217.912C77.0734 217.912 78.2814 218.12 79.3854 218.536L78.9534 220.984ZM91.0235 220.336C89.3595 220.336 88.0475 221.04 87.0875 222.448C86.2075 223.712 85.7675 225.28 85.7675 227.152C85.7675 229.04 86.2075 230.616 87.0875 231.88C88.0475 233.288 89.3595 233.992 91.0235 233.992C92.6875 233.992 93.9995 233.288 94.9595 231.88C95.8235 230.616 96.2555 229.04 96.2555 227.152C96.2555 225.296 95.8235 223.728 94.9595 222.448C93.9995 221.04 92.6875 220.336 91.0235 220.336ZM91.0235 217.912C93.5835 217.912 95.5755 218.864 96.9995 220.768C98.2635 222.464 98.8875 224.592 98.8715 227.152C98.8395 229.952 98.1835 232.16 96.9035 233.776C95.5115 235.536 93.5515 236.416 91.0235 236.416C88.5115 236.416 86.5435 235.536 85.1195 233.776C83.8075 232.128 83.1515 229.92 83.1515 227.152C83.1515 224.56 83.7755 222.424 85.0235 220.744C86.4315 218.856 88.4315 217.912 91.0235 217.912ZM111.618 236.032H102.594V218.272H105.186V233.56H111.618V236.032ZM116.715 236.032H114.075V218.272H116.715V236.032ZM133.266 235.6C132.37 236.096 130.97 236.344 129.066 236.344C126.33 236.344 124.146 235.512 122.514 233.848C120.898 232.152 120.09 229.92 120.09 227.152C120.09 224.416 120.914 222.2 122.562 220.504C124.21 218.808 126.378 217.96 129.066 217.96C131.018 217.96 132.418 218.176 133.266 218.608L133.074 221.056C131.986 220.624 130.65 220.408 129.066 220.408C127.13 220.408 125.586 221.032 124.434 222.28C123.282 223.528 122.706 225.152 122.706 227.152C122.706 229.232 123.266 230.864 124.386 232.048C125.522 233.28 127.082 233.896 129.066 233.896C130.746 233.896 132.082 233.632 133.074 233.104L133.266 235.6ZM140.528 236.032H137.888V218.272H140.528V236.032ZM155.063 220.648H150.191V236.032H147.575V220.648H142.727V218.272H155.063V220.648ZM167.229 229.072L164.325 221.68L161.397 229.072H167.229ZM172.797 236.128H170.013L168.189 231.544H160.413L158.565 236.128H155.805L163.101 218.224H165.717L172.797 236.128ZM182.902 219.52C181.99 219.52 181.166 219.68 180.43 220C179.694 220.304 179.07 220.76 178.558 221.368C178.046 221.96 177.654 222.688 177.382 223.552C177.11 224.4 176.974 225.36 176.974 226.432C176.974 227.84 177.19 229.064 177.622 230.104C178.07 231.144 178.726 231.944 179.59 232.504C180.47 233.064 181.566 233.344 182.878 233.344C183.63 233.344 184.342 233.28 185.014 233.152C185.686 233.024 186.342 232.864 186.982 232.672V234.544C186.342 234.784 185.678 234.96 184.99 235.072C184.318 235.184 183.51 235.24 182.566 235.24C180.822 235.24 179.366 234.88 178.198 234.16C177.03 233.44 176.15 232.416 175.558 231.088C174.982 229.76 174.694 228.2 174.694 226.408C174.694 225.112 174.87 223.928 175.222 222.856C175.59 221.784 176.118 220.856 176.806 220.072C177.51 219.288 178.374 218.688 179.398 218.272C180.422 217.84 181.598 217.624 182.926 217.624C183.806 217.624 184.654 217.712 185.47 217.888C186.286 218.064 187.014 218.312 187.654 218.632L186.79 220.456C186.262 220.216 185.67 220 185.014 219.808C184.374 219.616 183.67 219.52 182.902 219.52ZM184.582 238.336C184.582 238.848 184.446 239.28 184.174 239.632C183.918 240 183.526 240.28 182.998 240.472C182.47 240.664 181.814 240.76 181.03 240.76C180.79 240.76 180.558 240.744 180.334 240.712C180.126 240.696 179.958 240.672 179.83 240.64V239.32C179.974 239.352 180.166 239.376 180.406 239.392C180.646 239.424 180.878 239.44 181.102 239.44C181.678 239.44 182.118 239.36 182.422 239.2C182.726 239.056 182.878 238.784 182.878 238.384C182.878 237.968 182.662 237.664 182.23 237.472C181.814 237.28 181.302 237.144 180.694 237.064L181.726 235H183.118L182.494 236.272C182.878 236.352 183.23 236.472 183.55 236.632C183.87 236.808 184.118 237.032 184.294 237.304C184.486 237.576 184.582 237.92 184.582 238.336ZM205.206 226.408C205.206 227.736 205.038 228.944 204.702 230.032C204.366 231.104 203.862 232.032 203.19 232.816C202.534 233.6 201.71 234.2 200.718 234.616C199.742 235.032 198.606 235.24 197.31 235.24C195.966 235.24 194.798 235.032 193.806 234.616C192.814 234.184 191.99 233.584 191.334 232.816C190.678 232.032 190.19 231.096 189.87 230.008C189.55 228.92 189.39 227.712 189.39 226.384C189.39 224.624 189.678 223.088 190.254 221.776C190.83 220.464 191.702 219.44 192.87 218.704C194.054 217.968 195.542 217.6 197.334 217.6C199.046 217.6 200.486 217.968 201.654 218.704C202.822 219.424 203.702 220.448 204.294 221.776C204.902 223.088 205.206 224.632 205.206 226.408ZM191.67 226.408C191.67 227.848 191.87 229.088 192.27 230.128C192.67 231.168 193.286 231.968 194.118 232.528C194.966 233.088 196.03 233.368 197.31 233.368C198.606 233.368 199.662 233.088 200.478 232.528C201.31 231.968 201.926 231.168 202.326 230.128C202.726 229.088 202.926 227.848 202.926 226.408C202.926 224.248 202.478 222.56 201.582 221.344C200.686 220.112 199.27 219.496 197.334 219.496C196.038 219.496 194.966 219.776 194.118 220.336C193.286 220.88 192.67 221.672 192.27 222.712C191.87 223.736 191.67 224.968 191.67 226.408ZM192.918 216.184C192.966 215.704 193.054 215.28 193.182 214.912C193.326 214.528 193.51 214.208 193.734 213.952C193.958 213.68 194.222 213.472 194.526 213.328C194.83 213.184 195.174 213.112 195.558 213.112C195.91 213.112 196.246 213.184 196.566 213.328C196.902 213.456 197.222 213.616 197.526 213.808C197.83 213.984 198.118 214.144 198.39 214.288C198.678 214.416 198.95 214.48 199.206 214.48C199.574 214.48 199.854 214.368 200.046 214.144C200.254 213.904 200.414 213.552 200.526 213.088H201.726C201.63 214.016 201.358 214.76 200.91 215.32C200.462 215.88 199.862 216.16 199.11 216.16C198.774 216.16 198.446 216.096 198.126 215.968C197.806 215.824 197.486 215.664 197.166 215.488C196.862 215.296 196.566 215.136 196.278 215.008C196.006 214.864 195.734 214.792 195.462 214.792C195.078 214.792 194.79 214.912 194.598 215.152C194.406 215.376 194.254 215.72 194.142 216.184H192.918ZM218.124 236.128H209.004V218.224H217.86V220.672H211.62V225.664H217.524V228.112H211.62V233.656H218.124V236.128ZM230.266 220.984C229.466 220.584 228.394 220.384 227.05 220.384C224.97 220.384 223.93 221.152 223.93 222.688C223.93 223.424 224.578 224.2 225.874 225.016C226.946 225.704 227.786 226.248 228.394 226.648C229.002 227.048 229.37 227.312 229.498 227.44C230.794 228.576 231.442 229.888 231.442 231.376C231.442 233.04 230.802 234.344 229.522 235.288C228.434 236.088 227.13 236.488 225.61 236.488C224.09 236.488 222.698 236.208 221.434 235.648L221.746 232.984C222.946 233.656 224.266 233.992 225.706 233.992C227.834 233.992 228.898 233.056 228.898 231.184C228.898 230.448 228.25 229.648 226.954 228.784C225.786 228 224.898 227.4 224.29 226.984C223.698 226.568 223.378 226.344 223.33 226.312C222.05 225.208 221.41 224 221.41 222.688C221.41 221.2 221.986 220.008 223.138 219.112C224.178 218.312 225.49 217.912 227.074 217.912C228.386 217.912 229.594 218.12 230.698 218.536L230.266 220.984ZM89.2938 246.72H83.2698V251.664H88.9578V254.136H83.2698V262.032H80.6538V244.272H89.2938V246.72ZM94.8948 262.032H92.2548V244.272H94.8948V262.032ZM111.95 262.128H109.07L101.39 248.712V262.128H98.7978V244.224H101.558L109.358 257.856V244.224H111.95V262.128ZM125.955 255.072L123.051 247.68L120.123 255.072H125.955ZM131.523 262.128H128.739L126.915 257.544H119.139L117.291 262.128H114.531L121.827 244.224H124.443L131.523 262.128ZM143.165 262.032H134.141V244.272H136.733V259.56H143.165V262.032ZM148.262 262.032H145.622V244.272H148.262V262.032ZM162.269 262.032H150.725V259.944L158.957 246.72H150.917V244.272H161.957V246.36L153.797 259.56H162.269V262.032ZM174.963 255.072L172.059 247.68L169.131 255.072H174.963ZM180.531 262.128H177.747L175.923 257.544H168.147L166.299 262.128H163.539L170.835 244.224H173.451L180.531 262.128ZM185.861 259.56H186.725C191.589 259.56 194.021 257.384 194.021 253.032C194.021 248.824 191.941 246.72 187.781 246.72H185.861V259.56ZM183.245 244.272H187.781C190.789 244.272 193.053 245.104 194.573 246.768C195.933 248.272 196.613 250.384 196.613 253.104C196.613 256.176 195.637 258.472 193.685 259.992C191.973 261.352 189.597 262.032 186.557 262.032H183.245V244.272ZM210.33 255.072L207.426 247.68L204.498 255.072H210.33ZM215.898 262.128H213.114L211.29 257.544H203.514L201.666 262.128H198.906L206.202 244.224H208.818L215.898 262.128ZM226.844 246.984C226.044 246.584 224.972 246.384 223.628 246.384C221.548 246.384 220.508 247.152 220.508 248.688C220.508 249.424 221.156 250.2 222.452 251.016C223.524 251.704 224.364 252.248 224.972 252.648C225.58 253.048 225.948 253.312 226.076 253.44C227.372 254.576 228.02 255.888 228.02 257.376C228.02 259.04 227.38 260.344 226.1 261.288C225.012 262.088 223.708 262.488 222.188 262.488C220.668 262.488 219.276 262.208 218.012 261.648L218.324 258.984C219.524 259.656 220.844 259.992 222.284 259.992C224.412 259.992 225.476 259.056 225.476 257.184C225.476 256.448 224.828 255.648 223.532 254.784C222.364 254 221.476 253.4 220.868 252.984C220.276 252.568 219.956 252.344 219.908 252.312C218.628 251.208 217.988 250 217.988 248.688C217.988 247.2 218.564 246.008 219.716 245.112C220.756 244.312 222.068 243.912 223.652 243.912C224.964 243.912 226.172 244.12 227.276 244.536L226.844 246.984Z" fill="#1C3751"/>
<path d="M187.827 197L169.2 176.167L177.057 168.111L187.827 179.153L212.143 154.222L220 164.014M159.379 197H106.547C102.954 197 99.5082 195.537 96.9677 192.932C94.4272 190.327 93 186.795 93 183.111V85.8889C93 78.1806 99.0283 72 106.547 72H201.373C204.966 72 208.412 73.4633 210.952 76.068C213.493 78.6726 214.92 82.2053 214.92 85.8889V140.056C208.959 136.514 201.983 134.5 194.6 134.5L187.827 135.056V127.556H120.093V141.444H172.18C166.576 145.232 161.977 150.388 158.797 156.449C155.617 162.509 153.955 169.285 153.96 176.167C153.96 183.736 155.924 190.889 159.379 197ZM153.96 155.333H120.093V169.222H153.96M187.827 99.7778H120.093V113.667H187.827" fill="#1C3751"/>
<defs>
<filter id="filter0_d_486_52" x="0" y="0" width="320" height="320" filterUnits="userSpaceOnUse" color-interpolation-filters="sRGB">
<feFlood flood-opacity="0" result="BackgroundImageFix"/>
<feColorMatrix in="SourceAlpha" type="matrix" values="0 0 0 0 0 0 0 0 0 0 0 0 0 0 0 0 0 0 127 0" result="hardAlpha"/>
<feOffset dx="2" dy="4"/>
<feGaussianBlur stdDeviation="5"/>
<feComposite in2="hardAlpha" operator="out"/>
<feColorMatrix type="matrix" values="0 0 0 0 0 0 0 0 0 0 0 0 0 0 0 0 0 0 0.25 0"/>
<feBlend mode="normal" in2="BackgroundImageFix" result="effect1_dropShadow_486_52"/>
<feBlend mode="normal" in="SourceGraphic" in2="effect1_dropShadow_486_52" result="shape"/>
</filter>
</defs>
</svg>
