<svg width="320" height="320" viewBox="0 0 320 320" fill="none" xmlns="http://www.w3.org/2000/svg">
<g filter="url(#filter0_d_66_3)">
<rect x="8" y="6" width="300" height="300" rx="25" fill="#FAB84B"/>
</g>
<path d="M87.512 218.984C86.712 218.584 85.64 218.384 84.296 218.384C82.216 218.384 81.176 219.152 81.176 220.688C81.176 221.424 81.824 222.2 83.12 223.016C84.192 223.704 85.032 224.248 85.64 224.648C86.248 225.048 86.616 225.312 86.744 225.44C88.04 226.576 88.688 227.888 88.688 229.376C88.688 231.04 88.048 232.344 86.768 233.288C85.68 234.088 84.376 234.488 82.856 234.488C81.336 234.488 79.944 234.208 78.68 233.648L78.992 230.984C80.192 231.656 81.512 231.992 82.952 231.992C85.08 231.992 86.144 231.056 86.144 229.184C86.144 228.448 85.496 227.648 84.2 226.784C83.032 226 82.144 225.4 81.536 224.984C80.944 224.568 80.624 224.344 80.576 224.312C79.296 223.208 78.656 222 78.656 220.688C78.656 219.2 79.232 218.008 80.384 217.112C81.424 216.312 82.736 215.912 84.32 215.912C85.632 215.912 86.84 216.12 87.944 216.536L87.512 218.984ZM99.5821 218.336C97.9181 218.336 96.6061 219.04 95.6461 220.448C94.7661 221.712 94.3261 223.28 94.3261 225.152C94.3261 227.04 94.7661 228.616 95.6461 229.88C96.6061 231.288 97.9181 231.992 99.5821 231.992C101.246 231.992 102.558 231.288 103.518 229.88C104.382 228.616 104.814 227.04 104.814 225.152C104.814 223.296 104.382 221.728 103.518 220.448C102.558 219.04 101.246 218.336 99.5821 218.336ZM99.5821 215.912C102.142 215.912 104.134 216.864 105.558 218.768C106.822 220.464 107.446 222.592 107.43 225.152C107.398 227.952 106.742 230.16 105.462 231.776C104.07 233.536 102.11 234.416 99.5821 234.416C97.0701 234.416 95.1021 233.536 93.6781 231.776C92.3661 230.128 91.7101 227.92 91.7101 225.152C91.7101 222.56 92.3341 220.424 93.5821 218.744C94.9901 216.856 96.9901 215.912 99.5821 215.912ZM120.177 234.032H111.153V216.272H113.745V231.56H120.177V234.032ZM125.274 234.032H122.634V216.272H125.274V234.032ZM141.825 233.6C140.929 234.096 139.529 234.344 137.625 234.344C134.889 234.344 132.705 233.512 131.073 231.848C129.457 230.152 128.649 227.92 128.649 225.152C128.649 222.416 129.473 220.2 131.121 218.504C132.769 216.808 134.937 215.96 137.625 215.96C139.577 215.96 140.977 216.176 141.825 216.608L141.633 219.056C140.545 218.624 139.209 218.408 137.625 218.408C135.689 218.408 134.145 219.032 132.993 220.28C131.841 221.528 131.265 223.152 131.265 225.152C131.265 227.232 131.825 228.864 132.945 230.048C134.081 231.28 135.641 231.896 137.625 231.896C139.305 231.896 140.641 231.632 141.633 231.104L141.825 233.6ZM149.086 234.032H146.446V216.272H149.086V234.032ZM163.621 218.648H158.749V234.032H156.133V218.648H151.285V216.272H163.621V218.648ZM175.787 227.072L172.883 219.68L169.955 227.072H175.787ZM181.355 234.128H178.571L176.747 229.544H168.971L167.123 234.128H164.363L171.659 216.224H174.275L181.355 234.128ZM186.853 223.616H188.077C189.133 223.616 189.965 223.424 190.573 223.04C191.309 222.608 191.677 221.952 191.677 221.072C191.677 220.032 191.365 219.352 190.741 219.032C190.309 218.824 189.429 218.72 188.101 218.72H186.853V223.616ZM195.781 234.032H193.021L190.429 228.032C190.077 227.216 189.757 226.704 189.469 226.496C189.117 226.224 188.557 226.088 187.789 226.088H186.853V234.032H184.285V216.272H188.989C192.509 216.272 194.269 217.872 194.269 221.072C194.269 222.128 193.941 223.008 193.285 223.712C192.629 224.416 191.773 224.872 190.717 225.08C191.613 225.256 192.277 225.848 192.709 226.856L195.781 234.032ZM214.518 234.128H205.398V216.224H214.254V218.672H208.014V223.664H213.918V226.112H208.014V231.656H214.518V234.128ZM221.14 224.408H221.74C223.18 224.408 224.196 224.232 224.788 223.88C225.54 223.448 225.916 222.656 225.916 221.504C225.916 219.616 225.028 218.672 223.252 218.672H221.14V224.408ZM218.524 216.224H223.036C224.796 216.224 226.14 216.664 227.068 217.544C228.06 218.44 228.556 219.76 228.556 221.504C228.556 223.168 228.012 224.496 226.924 225.488C225.884 226.4 224.532 226.856 222.868 226.856H221.14V234.128H218.524V216.224ZM233.907 234.032H231.267V216.272H233.907V234.032Z" fill="#1C3751"/>
<path d="M185.493 162.631C186.587 161.781 187.58 160.787 189.562 158.806L214.293 134.069C214.893 133.475 214.618 132.444 213.824 132.162C209.954 130.814 206.441 128.604 203.549 125.7C200.645 122.808 198.435 119.295 197.087 115.425C196.805 114.631 195.774 114.356 195.18 114.956L170.437 139.687C168.455 141.669 167.462 142.662 166.612 143.756C165.605 145.05 164.737 146.444 164.037 147.919C163.443 149.169 162.999 150.506 162.112 153.169L160.962 156.606L159.137 162.075L157.43 167.2C157.218 167.842 157.188 168.531 157.344 169.19C157.5 169.848 157.836 170.45 158.314 170.929C158.793 171.407 159.395 171.743 160.053 171.899C160.712 172.055 161.401 172.025 162.043 171.812L167.168 170.106L172.637 168.281L176.074 167.131C178.737 166.244 180.074 165.806 181.324 165.206C182.799 164.5 184.205 163.644 185.493 162.631ZM222.037 126.325C223.327 125.078 224.357 123.586 225.065 121.937C225.773 120.288 226.146 118.515 226.162 116.72C226.177 114.926 225.835 113.146 225.156 111.485C224.476 109.824 223.473 108.314 222.204 107.045C220.935 105.776 219.426 104.772 217.766 104.092C216.105 103.412 214.325 103.07 212.53 103.085C210.736 103.1 208.962 103.472 207.313 104.179C205.664 104.887 204.172 105.916 202.924 107.206L202.13 108.006C201.752 108.379 201.47 108.839 201.309 109.345C201.148 109.851 201.112 110.389 201.205 110.912C201.33 111.581 201.549 112.569 201.955 113.737C202.768 116.081 204.305 119.156 207.199 122.05C209.536 124.406 212.379 126.199 215.512 127.294C216.687 127.7 217.668 127.919 218.337 128.044C218.86 128.136 219.398 128.101 219.904 127.939C220.41 127.778 220.87 127.497 221.243 127.119L222.037 126.325Z" fill="#1C3751"/>
<path fill-rule="evenodd" clip-rule="evenodd" d="M108.325 79.325C101 86.6437 101 98.4313 101 122V147C101 170.569 101 182.356 108.325 189.675C115.644 197 127.431 197 151 197H163.5C187.069 197 198.856 197 206.175 189.675C213.381 182.475 213.5 170.95 213.5 148.125L195.887 165.737C194.2 167.425 192.819 168.806 191.262 170.025C189.434 171.45 187.456 172.672 185.362 173.669C183.443 174.529 181.473 175.27 179.463 175.887L165.012 180.706C162.719 181.471 160.257 181.582 157.904 181.027C155.55 180.471 153.398 179.272 151.688 177.562C149.978 175.852 148.779 173.7 148.223 171.346C147.668 168.993 147.779 166.531 148.544 164.237L150.256 159.112L153.225 150.2L153.356 149.787C154.112 147.525 154.731 145.675 155.581 143.887C156.581 141.794 157.8 139.819 159.225 137.994C160.444 136.431 161.825 135.056 163.513 133.369L188.55 108.325L195.5 101.375L196.294 100.581C198.418 98.4512 200.942 96.7622 203.721 95.6113C206.5 94.4604 209.479 93.8703 212.487 93.875C211.544 87.4375 209.712 82.8562 206.175 79.325C198.856 72 187.069 72 163.5 72H151C127.431 72 115.644 72 108.325 79.325ZM127.562 115.75C127.562 114.507 128.056 113.315 128.935 112.435C129.815 111.556 131.007 111.062 132.25 111.062H172.875C174.118 111.062 175.31 111.556 176.19 112.435C177.069 113.315 177.562 114.507 177.562 115.75C177.562 116.993 177.069 118.185 176.19 119.065C175.31 119.944 174.118 120.438 172.875 120.438H132.25C131.007 120.438 129.815 119.944 128.935 119.065C128.056 118.185 127.562 116.993 127.562 115.75ZM127.562 140.75C127.562 139.507 128.056 138.315 128.935 137.435C129.815 136.556 131.007 136.062 132.25 136.062H147.875C149.118 136.062 150.31 136.556 151.19 137.435C152.069 138.315 152.562 139.507 152.562 140.75C152.562 141.993 152.069 143.185 151.19 144.065C150.31 144.944 149.118 145.438 147.875 145.438H132.25C131.007 145.438 129.815 144.944 128.935 144.065C128.056 143.185 127.562 141.993 127.562 140.75ZM127.562 165.75C127.562 164.507 128.056 163.315 128.935 162.435C129.815 161.556 131.007 161.062 132.25 161.062H141.625C142.868 161.062 144.06 161.556 144.94 162.435C145.819 163.315 146.312 164.507 146.312 165.75C146.312 166.993 145.819 168.185 144.94 169.065C144.06 169.944 142.868 170.438 141.625 170.438H132.25C131.007 170.438 129.815 169.944 128.935 169.065C128.056 168.185 127.562 166.993 127.562 165.75Z" fill="#1C3751"/>
<defs>
<filter id="filter0_d_66_3" x="0" y="0" width="320" height="320" filterUnits="userSpaceOnUse" color-interpolation-filters="sRGB">
<feFlood flood-opacity="0" result="BackgroundImageFix"/>
<feColorMatrix in="SourceAlpha" type="matrix" values="0 0 0 0 0 0 0 0 0 0 0 0 0 0 0 0 0 0 127 0" result="hardAlpha"/>
<feOffset dx="2" dy="4"/>
<feGaussianBlur stdDeviation="5"/>
<feComposite in2="hardAlpha" operator="out"/>
<feColorMatrix type="matrix" values="0 0 0 0 0 0 0 0 0 0 0 0 0 0 0 0 0 0 0.25 0"/>
<feBlend mode="normal" in2="BackgroundImageFix" result="effect1_dropShadow_66_3"/>
<feBlend mode="normal" in="SourceGraphic" in2="effect1_dropShadow_66_3" result="shape"/>
</filter>
</defs>
</svg>
