<svg width="268" height="11" viewBox="0 0 268 11" fill="none" xmlns="http://www.w3.org/2000/svg">
<path d="M4.90545 1.504C5.72145 1.504 6.44545 1.688 7.07745 2.056C7.71745 2.416 8.21345 2.924 8.56545 3.58C8.92545 4.228 9.10545 4.968 9.10545 5.8C9.10545 6.632 8.92545 7.376 8.56545 8.032C8.21345 8.68 7.71745 9.188 7.07745 9.556C6.44545 9.916 5.72145 10.096 4.90545 10.096C4.08145 10.096 3.34945 9.916 2.70945 9.556C2.07745 9.188 1.58145 8.68 1.22145 8.032C0.869453 7.376 0.693453 6.632 0.693453 5.8C0.693453 4.968 0.869453 4.228 1.22145 3.58C1.58145 2.924 2.07745 2.416 2.70945 2.056C3.34945 1.688 4.08145 1.504 4.90545 1.504ZM4.90545 2.116C4.18545 2.116 3.55745 2.268 3.02145 2.572C2.48545 2.868 2.07345 3.296 1.78545 3.856C1.49745 4.408 1.35345 5.056 1.35345 5.8C1.35345 6.536 1.49745 7.184 1.78545 7.744C2.07345 8.296 2.48545 8.728 3.02145 9.04C3.55745 9.344 4.18545 9.496 4.90545 9.496C5.61745 9.496 6.24145 9.344 6.77745 9.04C7.31345 8.728 7.72545 8.296 8.01345 7.744C8.30145 7.184 8.44545 6.536 8.44545 5.8C8.44545 5.056 8.30145 4.408 8.01345 3.856C7.72545 3.296 7.31345 2.868 6.77745 2.572C6.24945 2.268 5.62545 2.116 4.90545 2.116ZM4.89345 3.064C4.38945 3.064 3.93745 3.176 3.53745 3.4C3.13745 3.624 2.82145 3.944 2.58945 4.36C2.36545 4.768 2.25345 5.244 2.25345 5.788C2.25345 6.332 2.36545 6.812 2.58945 7.228C2.82145 7.644 3.13745 7.964 3.53745 8.188C3.93745 8.412 4.38945 8.524 4.89345 8.524C5.50945 8.524 6.04145 8.356 6.48945 8.02C6.93745 7.676 7.22945 7.224 7.36545 6.664H5.88945C5.80145 6.888 5.67345 7.06 5.50545 7.18C5.34545 7.3 5.12945 7.36 4.85745 7.36C4.48945 7.36 4.19745 7.228 3.98145 6.964C3.77345 6.692 3.66945 6.3 3.66945 5.788C3.66945 5.276 3.77345 4.888 3.98145 4.624C4.19745 4.36 4.48945 4.228 4.85745 4.228C5.11345 4.228 5.32945 4.288 5.50545 4.408C5.68945 4.528 5.81745 4.7 5.88945 4.924H7.36545C7.22945 4.348 6.93745 3.896 6.48945 3.568C6.04945 3.232 5.51745 3.064 4.89345 3.064ZM13.6347 8.104C14.4027 7.464 15.0147 6.932 15.4707 6.508C15.9267 6.076 16.3067 5.628 16.6107 5.164C16.9147 4.7 17.0667 4.244 17.0667 3.796C17.0667 3.388 16.9707 3.068 16.7787 2.836C16.5867 2.604 16.2907 2.488 15.8907 2.488C15.4907 2.488 15.1827 2.624 14.9667 2.896C14.7507 3.16 14.6387 3.524 14.6307 3.988H12.9987C13.0307 3.028 13.3147 2.3 13.8507 1.804C14.3947 1.308 15.0827 1.06 15.9147 1.06C16.8267 1.06 17.5267 1.304 18.0147 1.792C18.5027 2.272 18.7467 2.908 18.7467 3.7C18.7467 4.324 18.5787 4.92 18.2427 5.488C17.9067 6.056 17.5227 6.552 17.0907 6.976C16.6587 7.392 16.0947 7.896 15.3987 8.488H18.9387V9.88H13.0107V8.632L13.6347 8.104ZM19.9973 5.512C19.9973 4.128 20.2453 3.044 20.7413 2.26C21.2453 1.476 22.0773 1.084 23.2373 1.084C24.3973 1.084 25.2253 1.476 25.7213 2.26C26.2253 3.044 26.4773 4.128 26.4773 5.512C26.4773 6.904 26.2253 7.996 25.7213 8.788C25.2253 9.58 24.3973 9.976 23.2373 9.976C22.0773 9.976 21.2453 9.58 20.7413 8.788C20.2453 7.996 19.9973 6.904 19.9973 5.512ZM24.8213 5.512C24.8213 4.92 24.7813 4.424 24.7013 4.024C24.6293 3.616 24.4773 3.284 24.2453 3.028C24.0213 2.772 23.6853 2.644 23.2373 2.644C22.7893 2.644 22.4493 2.772 22.2173 3.028C21.9933 3.284 21.8413 3.616 21.7613 4.024C21.6893 4.424 21.6533 4.92 21.6533 5.512C21.6533 6.12 21.6893 6.632 21.7613 7.048C21.8333 7.456 21.9853 7.788 22.2173 8.044C22.4493 8.292 22.7893 8.416 23.2373 8.416C23.6853 8.416 24.0253 8.292 24.2573 8.044C24.4893 7.788 24.6413 7.456 24.7133 7.048C24.7853 6.632 24.8213 6.12 24.8213 5.512ZM28.2831 8.104C29.0511 7.464 29.6631 6.932 30.1191 6.508C30.5751 6.076 30.9551 5.628 31.2591 5.164C31.5631 4.7 31.7151 4.244 31.7151 3.796C31.7151 3.388 31.6191 3.068 31.4271 2.836C31.2351 2.604 30.9391 2.488 30.5391 2.488C30.1391 2.488 29.8311 2.624 29.6151 2.896C29.3991 3.16 29.2871 3.524 29.2791 3.988H27.6471C27.6791 3.028 27.9631 2.3 28.4991 1.804C29.0431 1.308 29.7311 1.06 30.5631 1.06C31.4751 1.06 32.1751 1.304 32.6631 1.792C33.1511 2.272 33.3951 2.908 33.3951 3.7C33.3951 4.324 33.2271 4.92 32.8911 5.488C32.5551 6.056 32.1711 6.552 31.7391 6.976C31.3071 7.392 30.7431 7.896 30.0471 8.488H33.5871V9.88H27.6591V8.632L28.2831 8.104ZM34.6698 3.556C34.7098 2.756 34.9898 2.14 35.5098 1.708C36.0378 1.268 36.7298 1.048 37.5858 1.048C38.1698 1.048 38.6698 1.152 39.0858 1.36C39.5018 1.56 39.8138 1.836 40.0218 2.188C40.2378 2.532 40.3458 2.924 40.3458 3.364C40.3458 3.868 40.2138 4.296 39.9498 4.648C39.6938 4.992 39.3858 5.224 39.0258 5.344V5.392C39.4898 5.536 39.8498 5.792 40.1058 6.16C40.3698 6.528 40.5018 7 40.5018 7.576C40.5018 8.056 40.3898 8.484 40.1658 8.86C39.9498 9.236 39.6258 9.532 39.1938 9.748C38.7698 9.956 38.2578 10.06 37.6578 10.06C36.7538 10.06 36.0178 9.832 35.4498 9.376C34.8818 8.92 34.5818 8.248 34.5498 7.36H36.1818C36.1978 7.752 36.3298 8.068 36.5778 8.308C36.8338 8.54 37.1818 8.656 37.6218 8.656C38.0298 8.656 38.3418 8.544 38.5578 8.32C38.7818 8.088 38.8938 7.792 38.8938 7.432C38.8938 6.952 38.7418 6.608 38.4378 6.4C38.1338 6.192 37.6618 6.088 37.0218 6.088H36.6738V4.708H37.0218C38.1578 4.708 38.7258 4.328 38.7258 3.568C38.7258 3.224 38.6218 2.956 38.4138 2.764C38.2138 2.572 37.9218 2.476 37.5378 2.476C37.1618 2.476 36.8698 2.58 36.6618 2.788C36.4618 2.988 36.3458 3.244 36.3138 3.556H34.6698ZM50.7127 4.144C50.5207 3.792 50.2567 3.524 49.9207 3.34C49.5847 3.156 49.1927 3.064 48.7447 3.064C48.2487 3.064 47.8087 3.176 47.4247 3.4C47.0407 3.624 46.7407 3.944 46.5247 4.36C46.3087 4.776 46.2007 5.256 46.2007 5.8C46.2007 6.36 46.3087 6.848 46.5247 7.264C46.7487 7.68 47.0567 8 47.4487 8.224C47.8407 8.448 48.2967 8.56 48.8167 8.56C49.4567 8.56 49.9807 8.392 50.3887 8.056C50.7967 7.712 51.0647 7.236 51.1927 6.628H48.3127V5.344H52.8487V6.808C52.7367 7.392 52.4967 7.932 52.1287 8.428C51.7607 8.924 51.2847 9.324 50.7007 9.628C50.1247 9.924 49.4767 10.072 48.7567 10.072C47.9487 10.072 47.2167 9.892 46.5607 9.532C45.9127 9.164 45.4007 8.656 45.0247 8.008C44.6567 7.36 44.4727 6.624 44.4727 5.8C44.4727 4.976 44.6567 4.24 45.0247 3.592C45.4007 2.936 45.9127 2.428 46.5607 2.068C47.2167 1.7 47.9447 1.516 48.7447 1.516C49.6887 1.516 50.5087 1.748 51.2047 2.212C51.9007 2.668 52.3807 3.312 52.6447 4.144H50.7127ZM60.2717 6.532C60.2717 6.772 60.2557 6.988 60.2237 7.18H55.3637C55.4037 7.66 55.5717 8.036 55.8677 8.308C56.1637 8.58 56.5277 8.716 56.9597 8.716C57.5837 8.716 58.0277 8.448 58.2917 7.912H60.1037C59.9117 8.552 59.5437 9.08 58.9997 9.496C58.4557 9.904 57.7877 10.108 56.9957 10.108C56.3557 10.108 55.7797 9.968 55.2677 9.688C54.7637 9.4 54.3677 8.996 54.0797 8.476C53.7997 7.956 53.6597 7.356 53.6597 6.676C53.6597 5.988 53.7997 5.384 54.0797 4.864C54.3597 4.344 54.7517 3.944 55.2557 3.664C55.7597 3.384 56.3397 3.244 56.9957 3.244C57.6277 3.244 58.1917 3.38 58.6877 3.652C59.1917 3.924 59.5797 4.312 59.8517 4.816C60.1317 5.312 60.2717 5.884 60.2717 6.532ZM58.5317 6.052C58.5237 5.62 58.3677 5.276 58.0637 5.02C57.7597 4.756 57.3877 4.624 56.9477 4.624C56.5317 4.624 56.1797 4.752 55.8917 5.008C55.6117 5.256 55.4397 5.604 55.3757 6.052H58.5317ZM63.1779 2.98V5.08H65.9979V6.412H63.1779V8.632H66.3579V10H61.4979V1.612H66.3579V2.98H63.1779ZM73.9926 4.216C73.9926 4.664 73.8846 5.084 73.6686 5.476C73.4606 5.868 73.1286 6.184 72.6726 6.424C72.2246 6.664 71.6566 6.784 70.9686 6.784H69.5646V10H67.8846V1.624H70.9686C71.6166 1.624 72.1686 1.736 72.6246 1.96C73.0806 2.184 73.4206 2.492 73.6446 2.884C73.8766 3.276 73.9926 3.72 73.9926 4.216ZM70.8966 5.428C71.3606 5.428 71.7046 5.324 71.9286 5.116C72.1526 4.9 72.2646 4.6 72.2646 4.216C72.2646 3.4 71.8086 2.992 70.8966 2.992H69.5646V5.428H70.8966ZM76.8654 1.624V10H75.1854V1.624H76.8654ZM86.4966 5.008V6.424H81.4086V5.008H86.4966ZM96.9401 1.624V2.98H94.7081V10H93.0281V2.98H90.7961V1.624H96.9401ZM101.118 10.108C100.478 10.108 99.9019 9.968 99.3899 9.688C98.8779 9.4 98.4739 8.996 98.1779 8.476C97.8899 7.956 97.7459 7.356 97.7459 6.676C97.7459 5.996 97.8939 5.396 98.1899 4.876C98.4939 4.356 98.9059 3.956 99.4259 3.676C99.9459 3.388 100.526 3.244 101.166 3.244C101.806 3.244 102.386 3.388 102.906 3.676C103.426 3.956 103.834 4.356 104.13 4.876C104.434 5.396 104.586 5.996 104.586 6.676C104.586 7.356 104.43 7.956 104.118 8.476C103.814 8.996 103.398 9.4 102.87 9.688C102.35 9.968 101.766 10.108 101.118 10.108ZM101.118 8.644C101.422 8.644 101.706 8.572 101.97 8.428C102.242 8.276 102.458 8.052 102.618 7.756C102.778 7.46 102.858 7.1 102.858 6.676C102.858 6.044 102.69 5.56 102.354 5.224C102.026 4.88 101.622 4.708 101.142 4.708C100.662 4.708 100.258 4.88 99.9299 5.224C99.6099 5.56 99.4499 6.044 99.4499 6.676C99.4499 7.308 99.6059 7.796 99.9179 8.14C100.238 8.476 100.638 8.644 101.118 8.644ZM105.386 6.652C105.386 5.98 105.518 5.384 105.782 4.864C106.054 4.344 106.422 3.944 106.886 3.664C107.35 3.384 107.866 3.244 108.434 3.244C108.866 3.244 109.278 3.34 109.67 3.532C110.062 3.716 110.374 3.964 110.606 4.276V1.12H112.31V10H110.606V9.016C110.398 9.344 110.106 9.608 109.73 9.808C109.354 10.008 108.918 10.108 108.422 10.108C107.862 10.108 107.35 9.964 106.886 9.676C106.422 9.388 106.054 8.984 105.782 8.464C105.518 7.936 105.386 7.332 105.386 6.652ZM110.618 6.676C110.618 6.268 110.538 5.92 110.378 5.632C110.218 5.336 110.002 5.112 109.73 4.96C109.458 4.8 109.166 4.72 108.854 4.72C108.542 4.72 108.254 4.796 107.99 4.948C107.726 5.1 107.51 5.324 107.342 5.62C107.182 5.908 107.102 6.252 107.102 6.652C107.102 7.052 107.182 7.404 107.342 7.708C107.51 8.004 107.726 8.232 107.99 8.392C108.262 8.552 108.55 8.632 108.854 8.632C109.166 8.632 109.458 8.556 109.73 8.404C110.002 8.244 110.218 8.02 110.378 7.732C110.538 7.436 110.618 7.084 110.618 6.676ZM116.903 10.108C116.263 10.108 115.687 9.968 115.175 9.688C114.663 9.4 114.259 8.996 113.963 8.476C113.675 7.956 113.531 7.356 113.531 6.676C113.531 5.996 113.679 5.396 113.975 4.876C114.279 4.356 114.691 3.956 115.211 3.676C115.731 3.388 116.311 3.244 116.951 3.244C117.591 3.244 118.171 3.388 118.691 3.676C119.211 3.956 119.619 4.356 119.915 4.876C120.219 5.396 120.371 5.996 120.371 6.676C120.371 7.356 120.215 7.956 119.903 8.476C119.599 8.996 119.183 9.4 118.655 9.688C118.135 9.968 117.551 10.108 116.903 10.108ZM116.903 8.644C117.207 8.644 117.491 8.572 117.755 8.428C118.027 8.276 118.243 8.052 118.403 7.756C118.563 7.46 118.643 7.1 118.643 6.676C118.643 6.044 118.475 5.56 118.139 5.224C117.811 4.88 117.407 4.708 116.927 4.708C116.447 4.708 116.043 4.88 115.715 5.224C115.395 5.56 115.235 6.044 115.235 6.676C115.235 7.308 115.391 7.796 115.703 8.14C116.023 8.476 116.423 8.644 116.903 8.644ZM124.147 10.108C123.603 10.108 123.115 10.012 122.683 9.82C122.251 9.62 121.907 9.352 121.651 9.016C121.403 8.68 121.267 8.308 121.243 7.9H122.935C122.967 8.156 123.091 8.368 123.307 8.536C123.531 8.704 123.807 8.788 124.135 8.788C124.455 8.788 124.703 8.724 124.879 8.596C125.063 8.468 125.155 8.304 125.155 8.104C125.155 7.888 125.043 7.728 124.819 7.624C124.603 7.512 124.255 7.392 123.775 7.264C123.279 7.144 122.871 7.02 122.551 6.892C122.239 6.764 121.967 6.568 121.735 6.304C121.511 6.04 121.399 5.684 121.399 5.236C121.399 4.868 121.503 4.532 121.711 4.228C121.927 3.924 122.231 3.684 122.623 3.508C123.023 3.332 123.491 3.244 124.027 3.244C124.819 3.244 125.451 3.444 125.923 3.844C126.395 4.236 126.655 4.768 126.703 5.44H125.095C125.071 5.176 124.959 4.968 124.759 4.816C124.567 4.656 124.307 4.576 123.979 4.576C123.675 4.576 123.439 4.632 123.271 4.744C123.111 4.856 123.031 5.012 123.031 5.212C123.031 5.436 123.143 5.608 123.367 5.728C123.591 5.84 123.939 5.956 124.411 6.076C124.891 6.196 125.287 6.32 125.599 6.448C125.911 6.576 126.179 6.776 126.403 7.048C126.635 7.312 126.755 7.664 126.763 8.104C126.763 8.488 126.655 8.832 126.439 9.136C126.231 9.44 125.927 9.68 125.527 9.856C125.135 10.024 124.675 10.108 124.147 10.108ZM133.954 10.108C133.314 10.108 132.738 9.968 132.226 9.688C131.714 9.4 131.31 8.996 131.014 8.476C130.726 7.956 130.582 7.356 130.582 6.676C130.582 5.996 130.73 5.396 131.026 4.876C131.33 4.356 131.742 3.956 132.262 3.676C132.782 3.388 133.362 3.244 134.002 3.244C134.642 3.244 135.222 3.388 135.742 3.676C136.262 3.956 136.67 4.356 136.966 4.876C137.27 5.396 137.422 5.996 137.422 6.676C137.422 7.356 137.266 7.956 136.954 8.476C136.65 8.996 136.234 9.4 135.706 9.688C135.186 9.968 134.602 10.108 133.954 10.108ZM133.954 8.644C134.258 8.644 134.542 8.572 134.806 8.428C135.078 8.276 135.294 8.052 135.454 7.756C135.614 7.46 135.694 7.1 135.694 6.676C135.694 6.044 135.526 5.56 135.19 5.224C134.862 4.88 134.458 4.708 133.978 4.708C133.498 4.708 133.094 4.88 132.766 5.224C132.446 5.56 132.286 6.044 132.286 6.676C132.286 7.308 132.442 7.796 132.754 8.14C133.074 8.476 133.474 8.644 133.954 8.644ZM141.198 10.108C140.654 10.108 140.166 10.012 139.734 9.82C139.302 9.62 138.958 9.352 138.702 9.016C138.454 8.68 138.318 8.308 138.294 7.9H139.986C140.018 8.156 140.142 8.368 140.358 8.536C140.582 8.704 140.858 8.788 141.186 8.788C141.506 8.788 141.754 8.724 141.93 8.596C142.114 8.468 142.206 8.304 142.206 8.104C142.206 7.888 142.094 7.728 141.87 7.624C141.654 7.512 141.306 7.392 140.826 7.264C140.33 7.144 139.922 7.02 139.602 6.892C139.29 6.764 139.018 6.568 138.786 6.304C138.562 6.04 138.45 5.684 138.45 5.236C138.45 4.868 138.554 4.532 138.762 4.228C138.978 3.924 139.282 3.684 139.674 3.508C140.074 3.332 140.542 3.244 141.078 3.244C141.87 3.244 142.502 3.444 142.974 3.844C143.446 4.236 143.706 4.768 143.754 5.44H142.146C142.122 5.176 142.01 4.968 141.81 4.816C141.618 4.656 141.358 4.576 141.03 4.576C140.726 4.576 140.49 4.632 140.322 4.744C140.162 4.856 140.082 5.012 140.082 5.212C140.082 5.436 140.194 5.608 140.418 5.728C140.642 5.84 140.99 5.956 141.462 6.076C141.942 6.196 142.338 6.32 142.65 6.448C142.962 6.576 143.23 6.776 143.454 7.048C143.686 7.312 143.806 7.664 143.814 8.104C143.814 8.488 143.706 8.832 143.49 9.136C143.282 9.44 142.978 9.68 142.578 9.856C142.186 10.024 141.726 10.108 141.198 10.108ZM147.621 6.652C147.621 5.98 147.753 5.384 148.017 4.864C148.289 4.344 148.657 3.944 149.121 3.664C149.585 3.384 150.101 3.244 150.669 3.244C151.101 3.244 151.513 3.34 151.905 3.532C152.297 3.716 152.609 3.964 152.841 4.276V1.12H154.545V10H152.841V9.016C152.633 9.344 152.341 9.608 151.965 9.808C151.589 10.008 151.153 10.108 150.657 10.108C150.097 10.108 149.585 9.964 149.121 9.676C148.657 9.388 148.289 8.984 148.017 8.464C147.753 7.936 147.621 7.332 147.621 6.652ZM152.853 6.676C152.853 6.268 152.773 5.92 152.613 5.632C152.453 5.336 152.237 5.112 151.965 4.96C151.693 4.8 151.401 4.72 151.089 4.72C150.777 4.72 150.489 4.796 150.225 4.948C149.961 5.1 149.745 5.324 149.577 5.62C149.417 5.908 149.337 6.252 149.337 6.652C149.337 7.052 149.417 7.404 149.577 7.708C149.745 8.004 149.961 8.232 150.225 8.392C150.497 8.552 150.785 8.632 151.089 8.632C151.401 8.632 151.693 8.556 151.965 8.404C152.237 8.244 152.453 8.02 152.613 7.732C152.773 7.436 152.853 7.084 152.853 6.676ZM157.037 2.56C156.741 2.56 156.493 2.468 156.293 2.284C156.101 2.092 156.005 1.856 156.005 1.576C156.005 1.296 156.101 1.064 156.293 0.879999C156.493 0.687999 156.741 0.592 157.037 0.592C157.333 0.592 157.577 0.687999 157.769 0.879999C157.969 1.064 158.069 1.296 158.069 1.576C158.069 1.856 157.969 2.092 157.769 2.284C157.577 2.468 157.333 2.56 157.037 2.56ZM157.865 3.352V10H156.185V3.352H157.865ZM161.205 4.384C161.421 4.032 161.701 3.756 162.045 3.556C162.397 3.356 162.797 3.256 163.245 3.256V5.02H162.801C162.273 5.02 161.873 5.144 161.601 5.392C161.337 5.64 161.205 6.072 161.205 6.688V10H159.525V3.352H161.205V4.384ZM170.557 6.532C170.557 6.772 170.541 6.988 170.509 7.18H165.649C165.689 7.66 165.857 8.036 166.153 8.308C166.449 8.58 166.813 8.716 167.245 8.716C167.869 8.716 168.313 8.448 168.577 7.912H170.389C170.197 8.552 169.829 9.08 169.285 9.496C168.741 9.904 168.073 10.108 167.281 10.108C166.641 10.108 166.065 9.968 165.553 9.688C165.049 9.4 164.653 8.996 164.365 8.476C164.085 7.956 163.945 7.356 163.945 6.676C163.945 5.988 164.085 5.384 164.365 4.864C164.645 4.344 165.037 3.944 165.541 3.664C166.045 3.384 166.625 3.244 167.281 3.244C167.913 3.244 168.477 3.38 168.973 3.652C169.477 3.924 169.865 4.312 170.137 4.816C170.417 5.312 170.557 5.884 170.557 6.532ZM168.817 6.052C168.809 5.62 168.653 5.276 168.349 5.02C168.045 4.756 167.673 4.624 167.233 4.624C166.817 4.624 166.465 4.752 166.177 5.008C165.897 5.256 165.725 5.604 165.661 6.052H168.817ZM172.635 2.56C172.339 2.56 172.091 2.468 171.891 2.284C171.699 2.092 171.603 1.856 171.603 1.576C171.603 1.296 171.699 1.064 171.891 0.879999C172.091 0.687999 172.339 0.592 172.635 0.592C172.931 0.592 173.175 0.687999 173.367 0.879999C173.567 1.064 173.667 1.296 173.667 1.576C173.667 1.856 173.567 2.092 173.367 2.284C173.175 2.468 172.931 2.56 172.635 2.56ZM173.463 3.352V10H171.783V3.352H173.463ZM177.079 4.732V7.948C177.079 8.172 177.131 8.336 177.235 8.44C177.347 8.536 177.531 8.584 177.787 8.584H178.567V10H177.511C176.095 10 175.387 9.312 175.387 7.936V4.732H174.595V3.352H175.387V1.708H177.079V3.352H178.567V4.732H177.079ZM182.727 10.108C182.087 10.108 181.511 9.968 180.999 9.688C180.487 9.4 180.083 8.996 179.787 8.476C179.499 7.956 179.355 7.356 179.355 6.676C179.355 5.996 179.503 5.396 179.799 4.876C180.103 4.356 180.515 3.956 181.035 3.676C181.555 3.388 182.135 3.244 182.775 3.244C183.415 3.244 183.995 3.388 184.515 3.676C185.035 3.956 185.443 4.356 185.739 4.876C186.043 5.396 186.195 5.996 186.195 6.676C186.195 7.356 186.039 7.956 185.727 8.476C185.423 8.996 185.007 9.4 184.479 9.688C183.959 9.968 183.375 10.108 182.727 10.108ZM182.727 8.644C183.031 8.644 183.315 8.572 183.579 8.428C183.851 8.276 184.067 8.052 184.227 7.756C184.387 7.46 184.467 7.1 184.467 6.676C184.467 6.044 184.299 5.56 183.963 5.224C183.635 4.88 183.231 4.708 182.751 4.708C182.271 4.708 181.867 4.88 181.539 5.224C181.219 5.56 181.059 6.044 181.059 6.676C181.059 7.308 181.215 7.796 181.527 8.14C181.847 8.476 182.247 8.644 182.727 8.644ZM189.972 10.108C189.428 10.108 188.94 10.012 188.508 9.82C188.076 9.62 187.732 9.352 187.476 9.016C187.228 8.68 187.092 8.308 187.068 7.9H188.76C188.792 8.156 188.916 8.368 189.132 8.536C189.356 8.704 189.632 8.788 189.96 8.788C190.28 8.788 190.528 8.724 190.704 8.596C190.888 8.468 190.98 8.304 190.98 8.104C190.98 7.888 190.868 7.728 190.644 7.624C190.428 7.512 190.08 7.392 189.6 7.264C189.104 7.144 188.696 7.02 188.376 6.892C188.064 6.764 187.792 6.568 187.56 6.304C187.336 6.04 187.224 5.684 187.224 5.236C187.224 4.868 187.328 4.532 187.536 4.228C187.752 3.924 188.056 3.684 188.448 3.508C188.848 3.332 189.316 3.244 189.852 3.244C190.644 3.244 191.276 3.444 191.748 3.844C192.22 4.236 192.48 4.768 192.528 5.44H190.92C190.896 5.176 190.784 4.968 190.584 4.816C190.392 4.656 190.132 4.576 189.804 4.576C189.5 4.576 189.264 4.632 189.096 4.744C188.936 4.856 188.856 5.012 188.856 5.212C188.856 5.436 188.968 5.608 189.192 5.728C189.416 5.84 189.764 5.956 190.236 6.076C190.716 6.196 191.112 6.32 191.424 6.448C191.736 6.576 192.004 6.776 192.228 7.048C192.46 7.312 192.58 7.664 192.588 8.104C192.588 8.488 192.48 8.832 192.264 9.136C192.056 9.44 191.752 9.68 191.352 9.856C190.96 10.024 190.5 10.108 189.972 10.108ZM198.506 4.384C198.722 4.032 199.002 3.756 199.346 3.556C199.698 3.356 200.098 3.256 200.546 3.256V5.02H200.102C199.574 5.02 199.174 5.144 198.902 5.392C198.638 5.64 198.506 6.072 198.506 6.688V10H196.826V3.352H198.506V4.384ZM207.858 6.532C207.858 6.772 207.842 6.988 207.81 7.18H202.95C202.99 7.66 203.158 8.036 203.454 8.308C203.75 8.58 204.114 8.716 204.546 8.716C205.17 8.716 205.614 8.448 205.878 7.912H207.69C207.498 8.552 207.13 9.08 206.586 9.496C206.042 9.904 205.374 10.108 204.582 10.108C203.942 10.108 203.366 9.968 202.854 9.688C202.35 9.4 201.954 8.996 201.666 8.476C201.386 7.956 201.246 7.356 201.246 6.676C201.246 5.988 201.386 5.384 201.666 4.864C201.946 4.344 202.338 3.944 202.842 3.664C203.346 3.384 203.926 3.244 204.582 3.244C205.214 3.244 205.778 3.38 206.274 3.652C206.778 3.924 207.166 4.312 207.438 4.816C207.718 5.312 207.858 5.884 207.858 6.532ZM206.118 6.052C206.11 5.62 205.954 5.276 205.65 5.02C205.346 4.756 204.974 4.624 204.534 4.624C204.118 4.624 203.766 4.752 203.478 5.008C203.198 5.256 203.026 5.604 202.962 6.052H206.118ZM211.628 10.108C211.084 10.108 210.596 10.012 210.164 9.82C209.732 9.62 209.388 9.352 209.132 9.016C208.884 8.68 208.748 8.308 208.724 7.9H210.416C210.448 8.156 210.572 8.368 210.788 8.536C211.012 8.704 211.288 8.788 211.616 8.788C211.936 8.788 212.184 8.724 212.36 8.596C212.544 8.468 212.636 8.304 212.636 8.104C212.636 7.888 212.524 7.728 212.3 7.624C212.084 7.512 211.736 7.392 211.256 7.264C210.76 7.144 210.352 7.02 210.032 6.892C209.72 6.764 209.448 6.568 209.216 6.304C208.992 6.04 208.88 5.684 208.88 5.236C208.88 4.868 208.984 4.532 209.192 4.228C209.408 3.924 209.712 3.684 210.104 3.508C210.504 3.332 210.972 3.244 211.508 3.244C212.3 3.244 212.932 3.444 213.404 3.844C213.876 4.236 214.136 4.768 214.184 5.44H212.576C212.552 5.176 212.44 4.968 212.24 4.816C212.048 4.656 211.788 4.576 211.46 4.576C211.156 4.576 210.92 4.632 210.752 4.744C210.592 4.856 210.512 5.012 210.512 5.212C210.512 5.436 210.624 5.608 210.848 5.728C211.072 5.84 211.42 5.956 211.892 6.076C212.372 6.196 212.768 6.32 213.08 6.448C213.392 6.576 213.66 6.776 213.884 7.048C214.116 7.312 214.236 7.664 214.244 8.104C214.244 8.488 214.136 8.832 213.92 9.136C213.712 9.44 213.408 9.68 213.008 9.856C212.616 10.024 212.156 10.108 211.628 10.108ZM221.803 6.532C221.803 6.772 221.787 6.988 221.755 7.18H216.895C216.935 7.66 217.103 8.036 217.399 8.308C217.695 8.58 218.059 8.716 218.491 8.716C219.115 8.716 219.559 8.448 219.823 7.912H221.635C221.443 8.552 221.075 9.08 220.531 9.496C219.987 9.904 219.319 10.108 218.527 10.108C217.887 10.108 217.311 9.968 216.799 9.688C216.295 9.4 215.899 8.996 215.611 8.476C215.331 7.956 215.191 7.356 215.191 6.676C215.191 5.988 215.331 5.384 215.611 4.864C215.891 4.344 216.283 3.944 216.787 3.664C217.291 3.384 217.871 3.244 218.527 3.244C219.159 3.244 219.723 3.38 220.219 3.652C220.723 3.924 221.111 4.312 221.383 4.816C221.663 5.312 221.803 5.884 221.803 6.532ZM220.063 6.052C220.055 5.62 219.899 5.276 219.595 5.02C219.291 4.756 218.919 4.624 218.479 4.624C218.063 4.624 217.711 4.752 217.423 5.008C217.143 5.256 216.971 5.604 216.907 6.052H220.063ZM224.709 4.384C224.925 4.032 225.205 3.756 225.549 3.556C225.901 3.356 226.301 3.256 226.749 3.256V5.02H226.305C225.777 5.02 225.377 5.144 225.105 5.392C224.841 5.64 224.709 6.072 224.709 6.688V10H223.029V3.352H224.709V4.384ZM230.653 8.452L232.333 3.352H234.121L231.661 10H229.621L227.173 3.352H228.973L230.653 8.452ZM234.632 6.652C234.632 5.98 234.764 5.384 235.028 4.864C235.3 4.344 235.664 3.944 236.12 3.664C236.584 3.384 237.1 3.244 237.668 3.244C238.164 3.244 238.596 3.344 238.964 3.544C239.34 3.744 239.64 3.996 239.864 4.3V3.352H241.556V10H239.864V9.028C239.648 9.34 239.348 9.6 238.964 9.808C238.588 10.008 238.152 10.108 237.656 10.108C237.096 10.108 236.584 9.964 236.12 9.676C235.664 9.388 235.3 8.984 235.028 8.464C234.764 7.936 234.632 7.332 234.632 6.652ZM239.864 6.676C239.864 6.268 239.784 5.92 239.624 5.632C239.464 5.336 239.248 5.112 238.976 4.96C238.704 4.8 238.412 4.72 238.1 4.72C237.788 4.72 237.5 4.796 237.236 4.948C236.972 5.1 236.756 5.324 236.588 5.62C236.428 5.908 236.348 6.252 236.348 6.652C236.348 7.052 236.428 7.404 236.588 7.708C236.756 8.004 236.972 8.232 237.236 8.392C237.508 8.552 237.796 8.632 238.1 8.632C238.412 8.632 238.704 8.556 238.976 8.404C239.248 8.244 239.464 8.02 239.624 7.732C239.784 7.436 239.864 7.084 239.864 6.676ZM242.765 6.652C242.765 5.98 242.897 5.384 243.161 4.864C243.433 4.344 243.801 3.944 244.265 3.664C244.729 3.384 245.245 3.244 245.813 3.244C246.245 3.244 246.657 3.34 247.049 3.532C247.441 3.716 247.753 3.964 247.985 4.276V1.12H249.689V10H247.985V9.016C247.777 9.344 247.485 9.608 247.109 9.808C246.733 10.008 246.297 10.108 245.801 10.108C245.241 10.108 244.729 9.964 244.265 9.676C243.801 9.388 243.433 8.984 243.161 8.464C242.897 7.936 242.765 7.332 242.765 6.652ZM247.997 6.676C247.997 6.268 247.917 5.92 247.757 5.632C247.597 5.336 247.381 5.112 247.109 4.96C246.837 4.8 246.545 4.72 246.233 4.72C245.921 4.72 245.633 4.796 245.369 4.948C245.105 5.1 244.889 5.324 244.721 5.62C244.561 5.908 244.481 6.252 244.481 6.652C244.481 7.052 244.561 7.404 244.721 7.708C244.889 8.004 245.105 8.232 245.369 8.392C245.641 8.552 245.929 8.632 246.233 8.632C246.545 8.632 246.837 8.556 247.109 8.404C247.381 8.244 247.597 8.02 247.757 7.732C247.917 7.436 247.997 7.084 247.997 6.676ZM254.282 10.108C253.642 10.108 253.066 9.968 252.554 9.688C252.042 9.4 251.638 8.996 251.342 8.476C251.054 7.956 250.91 7.356 250.91 6.676C250.91 5.996 251.058 5.396 251.354 4.876C251.658 4.356 252.07 3.956 252.59 3.676C253.11 3.388 253.69 3.244 254.33 3.244C254.97 3.244 255.55 3.388 256.07 3.676C256.59 3.956 256.998 4.356 257.294 4.876C257.598 5.396 257.75 5.996 257.75 6.676C257.75 7.356 257.594 7.956 257.282 8.476C256.978 8.996 256.562 9.4 256.034 9.688C255.514 9.968 254.93 10.108 254.282 10.108ZM254.282 8.644C254.586 8.644 254.87 8.572 255.134 8.428C255.406 8.276 255.622 8.052 255.782 7.756C255.942 7.46 256.022 7.1 256.022 6.676C256.022 6.044 255.854 5.56 255.518 5.224C255.19 4.88 254.786 4.708 254.306 4.708C253.826 4.708 253.422 4.88 253.094 5.224C252.774 5.56 252.614 6.044 252.614 6.676C252.614 7.308 252.77 7.796 253.082 8.14C253.402 8.476 253.802 8.644 254.282 8.644ZM261.526 10.108C260.982 10.108 260.494 10.012 260.062 9.82C259.63 9.62 259.286 9.352 259.03 9.016C258.782 8.68 258.646 8.308 258.622 7.9H260.314C260.346 8.156 260.47 8.368 260.686 8.536C260.91 8.704 261.186 8.788 261.514 8.788C261.834 8.788 262.082 8.724 262.258 8.596C262.442 8.468 262.534 8.304 262.534 8.104C262.534 7.888 262.422 7.728 262.198 7.624C261.982 7.512 261.634 7.392 261.154 7.264C260.658 7.144 260.25 7.02 259.93 6.892C259.618 6.764 259.346 6.568 259.114 6.304C258.89 6.04 258.778 5.684 258.778 5.236C258.778 4.868 258.882 4.532 259.09 4.228C259.306 3.924 259.61 3.684 260.002 3.508C260.402 3.332 260.87 3.244 261.406 3.244C262.198 3.244 262.83 3.444 263.302 3.844C263.774 4.236 264.034 4.768 264.082 5.44H262.474C262.45 5.176 262.338 4.968 262.138 4.816C261.946 4.656 261.686 4.576 261.358 4.576C261.054 4.576 260.818 4.632 260.65 4.744C260.49 4.856 260.41 5.012 260.41 5.212C260.41 5.436 260.522 5.608 260.746 5.728C260.97 5.84 261.318 5.956 261.79 6.076C262.27 6.196 262.666 6.32 262.978 6.448C263.29 6.576 263.558 6.776 263.782 7.048C264.014 7.312 264.134 7.664 264.142 8.104C264.142 8.488 264.034 8.832 263.818 9.136C263.61 9.44 263.306 9.68 262.906 9.856C262.514 10.024 262.054 10.108 261.526 10.108ZM266.265 10.084C265.961 10.084 265.709 9.992 265.509 9.808C265.317 9.616 265.221 9.38 265.221 9.1C265.221 8.82 265.317 8.588 265.509 8.404C265.709 8.212 265.961 8.116 266.265 8.116C266.561 8.116 266.805 8.212 266.997 8.404C267.189 8.588 267.285 8.82 267.285 9.1C267.285 9.38 267.189 9.616 266.997 9.808C266.805 9.992 266.561 10.084 266.265 10.084Z" fill="#1C3751"/>
</svg>
