<svg width="24" height="25" viewBox="0 0 24 25" fill="none" xmlns="http://www.w3.org/2000/svg">
<path d="M6.66667 0.890015C2.99067 0.890015 0 3.88068 0 7.55668V18.2233C0 21.8993 2.99067 24.89 6.66667 24.89H17.3333C21.0093 24.89 24 21.8993 24 18.2233V7.55668C24 3.88068 21.0093 0.890015 17.3333 0.890015H6.66667ZM6.66667 3.55668H17.3333C19.5387 3.55668 21.3333 5.35135 21.3333 7.55668V18.2233C21.3333 20.4287 19.5387 22.2233 17.3333 22.2233H6.66667C4.46133 22.2233 2.66667 20.4287 2.66667 18.2233V7.55668C2.66667 5.35135 4.46133 3.55668 6.66667 3.55668ZM18.6667 4.89001C18.313 4.89001 17.9739 5.03049 17.7239 5.28054C17.4738 5.53059 17.3333 5.86973 17.3333 6.22335C17.3333 6.57697 17.4738 6.91611 17.7239 7.16616C17.9739 7.41621 18.313 7.55668 18.6667 7.55668C19.0203 7.55668 19.3594 7.41621 19.6095 7.16616C19.8595 6.91611 20 6.57697 20 6.22335C20 5.86973 19.8595 5.53059 19.6095 5.28054C19.3594 5.03049 19.0203 4.89001 18.6667 4.89001ZM12 6.22335C8.324 6.22335 5.33333 9.21402 5.33333 12.89C5.33333 16.566 8.324 19.5567 12 19.5567C15.676 19.5567 18.6667 16.566 18.6667 12.89C18.6667 9.21402 15.676 6.22335 12 6.22335ZM12 8.89001C14.2053 8.89001 16 10.6847 16 12.89C16 15.0953 14.2053 16.89 12 16.89C9.79467 16.89 8 15.0953 8 12.89C8 10.6847 9.79467 8.89001 12 8.89001Z" fill="#1C3751"/>
</svg>
