<svg width="28" height="22" viewBox="0 0 28 22" fill="none" xmlns="http://www.w3.org/2000/svg">
<path d="M1.67949 17.3744C0.773505 13.0989 0.773505 8.68097 1.67949 4.40545C1.79853 3.97126 2.02853 3.57553 2.34688 3.25718C2.66523 2.93884 3.06095 2.70883 3.49514 2.58979C10.451 1.43745 17.549 1.43745 24.5049 2.58979C24.939 2.70883 25.3348 2.93884 25.6531 3.25718C25.9715 3.57553 26.2015 3.97126 26.3205 4.40545C27.2265 8.68097 27.2265 13.0989 26.3205 17.3744C26.2015 17.8086 25.9715 18.2043 25.6531 18.5227C25.3348 18.841 24.939 19.071 24.5049 19.1901C17.549 20.3426 10.451 20.3426 3.49514 19.1901C3.06095 19.071 2.66523 18.841 2.34688 18.5227C2.02853 18.2043 1.79853 17.8086 1.67949 17.3744Z" stroke="#1C3751" stroke-width="2" stroke-linecap="round" stroke-linejoin="round"/>
<path d="M11.4062 14.7806L17.8907 10.8899L11.4062 6.99924V14.7806Z" stroke="#1C3751" stroke-width="2" stroke-linecap="round" stroke-linejoin="round"/>
</svg>
